<mxfile modified="2021-09-13T19:43:23.710Z" host="app.diagrams.net" agent="5.0 (Windows)" etag="B__D6jNiNF7_cvs1ZVcI" version="15.2.4" type="github">
  <diagram id="1d9ff53c-007c-2b3d-2baf-9968f2698d1e" name="Page-1">
    <mxGraphModel dx="1422" dy="791" grid="1" gridSize="10" guides="1" tooltips="1" connect="1" arrows="1" fold="1" page="1" pageScale="1" pageWidth="850" pageHeight="1100" background="#ffffff" math="0" shadow="0">
      <root>
        <mxCell id="0" />
        <mxCell id="1" parent="0" />
        <mxCell id="3257157e077bce5b-14" value="192.168.4.51" style="text;html=1;strokeColor=none;fillColor=none;align=center;verticalAlign=middle;whiteSpace=wrap;" parent="1" vertex="1">
          <mxGeometry x="347" y="119" width="40" height="20" as="geometry" />
        </mxCell>
        <mxCell id="3257157e077bce5b-17" value="10.0.17.2" style="text;html=1;strokeColor=none;fillColor=none;align=center;verticalAlign=middle;whiteSpace=wrap;" parent="1" vertex="1">
          <mxGeometry x="482" y="161" width="40" height="20" as="geometry" />
        </mxCell>
        <mxCell id="3257157e077bce5b-24" value="SEC350-WAN 10.0.17.0/24" style="html=1;fillColor=#CCCCCC;strokeColor=#6881B3;gradientColor=none;gradientDirection=north;strokeWidth=2;shape=mxgraph.networks.bus;gradientColor=none;gradientDirection=north;fontColor=#ffffff;perimeter=backbonePerimeter;backboneSize=20;" parent="1" vertex="1">
          <mxGeometry x="450" y="247" width="283" height="20" as="geometry" />
        </mxCell>
        <mxCell id="3257157e077bce5b-25" value="" style="strokeColor=#6881B3;edgeStyle=none;rounded=0;endArrow=none;html=1;strokeWidth=2;exitX=0.77;exitY=0.922;exitPerimeter=0;entryX=0.038;entryY=0;entryPerimeter=0;" parent="1" target="3257157e077bce5b-24" edge="1">
          <mxGeometry relative="1" as="geometry">
            <mxPoint x="459" y="156" as="sourcePoint" />
          </mxGeometry>
        </mxCell>
        <mxCell id="3257157e077bce5b-31" value="" style="strokeColor=#6881B3;edgeStyle=none;rounded=0;endArrow=none;html=1;strokeWidth=2;" parent="1" edge="1">
          <mxGeometry relative="1" as="geometry">
            <mxPoint x="506" y="317" as="sourcePoint" />
            <mxPoint x="506" y="266" as="targetPoint" />
          </mxGeometry>
        </mxCell>
        <mxCell id="3257157e077bce5b-33" value="" style="dashed=0;html=1;shape=mxgraph.aws2.non-service_specific.traditional_server;strokeColor=none;" parent="1" vertex="1">
          <mxGeometry x="485.5" y="317" width="41" height="56" as="geometry" />
        </mxCell>
        <mxCell id="3257157e077bce5b-34" value="sec350.cyber.local&lt;div&gt;10.0.17.100&lt;/div&gt;" style="text;html=1;strokeColor=none;fillColor=none;align=center;verticalAlign=middle;whiteSpace=wrap;" parent="1" vertex="1">
          <mxGeometry x="486" y="387" width="40" height="20" as="geometry" />
        </mxCell>
        <mxCell id="3257157e077bce5b-40" value="" style="dashed=0;html=1;shape=mxgraph.aws2.networking.vpc_customer_gateway;strokeColor=none;" parent="1" vertex="1">
          <mxGeometry x="532" y="462" width="61" height="64" as="geometry" />
        </mxCell>
        <mxCell id="3257157e077bce5b-46" value="Vcenter" style="shape=umlActor;verticalLabelPosition=bottom;labelBackgroundColor=#ffffff;verticalAlign=top;html=1;" parent="1" vertex="1">
          <mxGeometry x="50" y="197" width="30" height="60" as="geometry" />
        </mxCell>
        <mxCell id="3257157e077bce5b-57" value="fw01&lt;br&gt;10.0.17.1&lt;u&gt;16&lt;/u&gt;/24 (eth0)" style="text;html=1;strokeColor=none;fillColor=none;align=center;verticalAlign=middle;whiteSpace=wrap;" parent="1" vertex="1">
          <mxGeometry x="486" y="442" width="40" height="20" as="geometry" />
        </mxCell>
        <mxCell id="3257157e077bce5b-62" value="DMZ 172.16.50.0/29" style="html=1;fillColor=#CCCCCC;strokeColor=#6881B3;gradientColor=none;gradientDirection=north;strokeWidth=2;shape=mxgraph.networks.bus;gradientColor=none;gradientDirection=north;fontColor=#ffffff;perimeter=backbonePerimeter;backboneSize=20;" parent="1" vertex="1">
          <mxGeometry x="20" y="680" width="320" height="39" as="geometry" />
        </mxCell>
        <mxCell id="3257157e077bce5b-63" value="LAN 172.16.150.0/24" style="html=1;fillColor=#CCCCCC;strokeColor=#6881B3;gradientColor=none;gradientDirection=north;strokeWidth=2;shape=mxgraph.networks.bus;gradientColor=none;gradientDirection=north;fontColor=#ffffff;perimeter=backbonePerimeter;backboneSize=20;" parent="1" vertex="1">
          <mxGeometry x="419" y="680" width="320" height="39" as="geometry" />
        </mxCell>
        <mxCell id="3257157e077bce5b-69" value="172.16.50.2&lt;div&gt;eth1&lt;/div&gt;" style="text;html=1;strokeColor=none;fillColor=none;align=center;verticalAlign=middle;whiteSpace=wrap;rotation=-35;" parent="1" vertex="1">
          <mxGeometry x="359" y="600" width="120" height="20" as="geometry" />
        </mxCell>
        <mxCell id="3257157e077bce5b-70" value="&lt;div style=&quot;text-align: center&quot;&gt;172.16.150.2&lt;/div&gt;&lt;div style=&quot;text-align: center&quot;&gt;eth2&lt;/div&gt;" style="text;html=1;strokeColor=none;fillColor=none;align=center;verticalAlign=middle;whiteSpace=wrap;rotation=60;" parent="1" vertex="1">
          <mxGeometry x="534" y="576" width="122" height="20" as="geometry" />
        </mxCell>
        <mxCell id="3257157e077bce5b-71" value="" style="dashed=0;html=1;shape=mxgraph.aws2.non-service_specific.traditional_server;strokeColor=none;" parent="1" vertex="1">
          <mxGeometry x="55.5" y="727" width="41" height="56" as="geometry" />
        </mxCell>
        <mxCell id="3257157e077bce5b-72" value="" style="dashed=0;html=1;shape=mxgraph.aws2.non-service_specific.traditional_server;strokeColor=none;" parent="1" vertex="1">
          <mxGeometry x="149.5" y="726" width="41" height="56" as="geometry" />
        </mxCell>
        <mxCell id="3257157e077bce5b-75" value="web01&lt;div&gt;.3&lt;/div&gt;" style="text;html=1;strokeColor=none;fillColor=none;align=center;verticalAlign=middle;whiteSpace=wrap;" parent="1" vertex="1">
          <mxGeometry x="56" y="787" width="40" height="20" as="geometry" />
        </mxCell>
        <mxCell id="3257157e077bce5b-76" value="log01&lt;div&gt;.5&lt;/div&gt;" style="text;html=1;strokeColor=none;fillColor=none;align=center;verticalAlign=middle;whiteSpace=wrap;" parent="1" vertex="1">
          <mxGeometry x="150" y="787" width="40" height="20" as="geometry" />
        </mxCell>
        <mxCell id="3257157e077bce5b-82" value="" style="strokeColor=#6881B3;edgeStyle=none;rounded=0;endArrow=none;html=1;strokeWidth=2;entryX=0.178;entryY=0.769;entryPerimeter=0;" parent="1" target="3257157e077bce5b-62" edge="1">
          <mxGeometry x="75" y="704" as="geometry">
            <mxPoint x="75" y="727" as="sourcePoint" />
            <mxPoint x="75" y="717" as="targetPoint" />
          </mxGeometry>
        </mxCell>
        <mxCell id="3257157e077bce5b-83" value="" style="strokeColor=#6881B3;edgeStyle=none;rounded=0;endArrow=none;html=1;strokeWidth=2;entryX=0.178;entryY=0.769;entryPerimeter=0;" parent="1" edge="1">
          <mxGeometry x="171" y="706" as="geometry">
            <mxPoint x="171" y="729" as="sourcePoint" />
            <mxPoint x="173" y="712" as="targetPoint" />
          </mxGeometry>
        </mxCell>
        <mxCell id="3257157e077bce5b-85" value="" style="dashed=0;html=1;shape=mxgraph.aws2.non-service_specific.management_console;strokeColor=none;" parent="1" vertex="1">
          <mxGeometry x="632" y="465" width="57" height="57" as="geometry" />
        </mxCell>
        <mxCell id="3257157e077bce5b-87" value="rw01&lt;div&gt;10.0.17.16/24&lt;/div&gt;" style="text;html=1;strokeColor=none;fillColor=none;align=center;verticalAlign=middle;whiteSpace=wrap;" parent="1" vertex="1">
          <mxGeometry x="641" y="530" width="40" height="20" as="geometry" />
        </mxCell>
        <mxCell id="3257157e077bce5b-94" value="" style="edgeStyle=segmentEdgeStyle;endArrow=classic;html=1;entryX=0.02;entryY=0.02;entryPerimeter=0;" parent="1" target="3257157e077bce5b-33" edge="1">
          <mxGeometry width="50" height="50" relative="1" as="geometry">
            <mxPoint x="80" y="227" as="sourcePoint" />
            <mxPoint x="110" y="347" as="targetPoint" />
            <Array as="points">
              <mxPoint x="120" y="227" />
              <mxPoint x="120" y="147" />
              <mxPoint x="430" y="147" />
              <mxPoint x="430" y="318" />
            </Array>
          </mxGeometry>
        </mxCell>
        <mxCell id="3257157e077bce5b-95" value="&lt;ul&gt;&lt;li&gt;ssh&lt;/li&gt;&lt;li&gt;http&lt;/li&gt;&lt;li&gt;https&lt;/li&gt;&lt;/ul&gt;" style="text;html=1;whiteSpace=wrap;verticalAlign=middle;overflow=hidden;" parent="1" vertex="1">
          <mxGeometry x="359" y="139" width="100" height="80" as="geometry" />
        </mxCell>
        <mxCell id="3257157e077bce5b-97" value="Routing and DMZ Architecture" style="text;html=1;fontSize=24;fontStyle=1;verticalAlign=middle;align=center;" parent="1" vertex="1">
          <mxGeometry x="154" y="30" width="478" height="40" as="geometry" />
        </mxCell>
        <mxCell id="22f3aa450099fae8-2" value="" style="endArrow=classic;html=1;" parent="1" edge="1">
          <mxGeometry width="50" height="50" relative="1" as="geometry">
            <mxPoint x="90" y="300" as="sourcePoint" />
            <mxPoint x="130" y="330" as="targetPoint" />
          </mxGeometry>
        </mxCell>
        <mxCell id="34094e6e006449d5-4" value="" style="edgeStyle=none;rounded=0;html=1;endArrow=none;endFill=0;jettySize=auto;orthogonalLoop=1;fontSize=8;entryX=0.406;entryY=0.95;entryPerimeter=0;" parent="1" source="3257157e077bce5b-40" target="3257157e077bce5b-24" edge="1">
          <mxGeometry relative="1" as="geometry">
            <mxPoint x="562.5" y="382" as="targetPoint" />
          </mxGeometry>
        </mxCell>
        <mxCell id="34094e6e006449d5-8" value="" style="edgeStyle=none;rounded=0;html=1;endArrow=none;endFill=0;jettySize=auto;orthogonalLoop=1;fontSize=8;entryX=0.753;entryY=1.05;entryPerimeter=0;" parent="1" source="3257157e077bce5b-85" target="3257157e077bce5b-24" edge="1">
          <mxGeometry relative="1" as="geometry">
            <mxPoint x="660.5" y="385" as="targetPoint" />
          </mxGeometry>
        </mxCell>
        <mxCell id="34094e6e006449d5-9" value="" style="edgeStyle=none;rounded=0;html=1;endArrow=none;endFill=0;jettySize=auto;orthogonalLoop=1;fontSize=8;" parent="1" source="3257157e077bce5b-40" edge="1">
          <mxGeometry relative="1" as="geometry">
            <mxPoint x="670" y="690" as="targetPoint" />
          </mxGeometry>
        </mxCell>
        <mxCell id="34094e6e006449d5-10" value="" style="edgeStyle=none;rounded=0;html=1;endArrow=none;endFill=0;jettySize=auto;orthogonalLoop=1;fontSize=8;entryX=0.769;entryY=0.205;entryPerimeter=0;" parent="1" source="3257157e077bce5b-40" target="3257157e077bce5b-62" edge="1">
          <mxGeometry relative="1" as="geometry">
            <mxPoint x="452" y="494" as="targetPoint" />
          </mxGeometry>
        </mxCell>
        <mxCell id="289a500d9ecd4188-1" value="esxi02-fw1" style="image;html=1;labelBackgroundColor=#ffffff;image=img/lib/clip_art/networking/Firewall_02_128x128.png;fontSize=8;align=center;" parent="1" vertex="1">
          <mxGeometry x="419" y="88" width="55" height="51" as="geometry" />
        </mxCell>
        <mxCell id="289a500d9ecd4188-2" value="port forwarding" style="text;html=1;strokeColor=none;fillColor=none;align=center;verticalAlign=middle;whiteSpace=wrap;fontSize=8;rotation=90;" parent="1" vertex="1">
          <mxGeometry x="390" y="253" width="69" height="20" as="geometry" />
        </mxCell>
        <mxCell id="RDdP6Cg_x0NcpBkW0Wiw-2" value="" style="shape=image;verticalLabelPosition=bottom;labelBackgroundColor=#ffffff;verticalAlign=top;aspect=fixed;imageAspect=0;image=data:image/png,iVBORw0KGgoAAAANSUhEUgAAARAAAACNCAYAAAB/hSU8AAAgAElEQVR4Aey9B5xeV3H//btP277Sqq26ZFmS5SbJckHGHWwM2IaYmGJCdQJvCgmQRuo/AQJ5/5BPIMAbEiCYEnqxjTu49ybZlpuKVa26aqutT7/v5zv3zrNXj3dlyZYcyOpIz95yzpkzZ87MnDltbvCnX/x5qMMegpcNMVCoQFUpjO4UxFeBZoRqEINPpVJWTshzGIhLtVpVGIZRytDTR+k8f/Q6VBAESqeiX6UaqpqghEEDcACsCB7RVjTwPW0qjg2llKJywC8wpCIyJG6VDkgTqgIMEobU14qp0axq5UX15m/KCo1hUccaHQKBNPXwJEAzPKtVoyPYBUYnKyWiF2UGgapedoxTHCmFVcMNCJ4rCFIKQ9pFCpII1bAeuqlCSKoWkU8pa8OI+kCM/sXNGYRGgzCmc5RxCNbRu1eXAlWllA6qaqns1hvPOlFnnnHmARHIlCqVAyZ4OZEu4IeWF1aN2R/pNAFNuajEEoY4pIypG6t71aRuBWFZVWVUUaOKalE106pSqkmhSW3EnCkTkEi5mMxWy0oDKSyrVC6pXCkpnW1UKtsg0lahiUkhEhBpjUiFBAqrlUhgESiiqpGQIXRVVSL+r1Jz3jv+NEtFlVJR/YWi0umMMo2NqqbSQu2gbFJBGCm/WOBRgo532RQWSitSVpFCkFKpSAko0YZGNkoOZD9IGVSifORHIStIKRWiiCB5VQFCHNXGqsvrciVSIig8I4GVbRlULZcNDkolClGpKMOI7oEpLSuPBFUryWhTUx4oSRSN4UTpcRoneAz56OXVpUAVPg6qKpfLCqrS3j1dqiBLdNAJwfa2zSAQhzske/JDhR31uyaaMVMnIcBkKaVVVFNlu1rKG5QOi6qGDSqlxyoIxyilyQozkaIx4UCU4yrCqwhPqRwJusKypneO07hxY7S1a4929wwoSGWFWJdRFKmUCVdovTkyk1KlWolELZ0xxIhDjNJYIrGgW29tKqSqaqWqVBpLoaTx7c2aM/tEde/r1doXNkeWBVFYEem0lYXyMuHHOggrZgl4w2FdBUFV6bCqiunYtAIrM7K6QMjEMJBZOuiFwCwUFBl5hpQSaWl7cLd0kTE0ZK0Qh3Vmej1SbulUWlgK0CCdRrFgtUVKABxjNaJUkDGlYbRJUTYxrsy5i5WlZaBgw6amxCKtbeQ9+udVpgBWMe0LHzZkG7Tu+XUqW8dOhwWPIhNYo1FfFEnBYUYyoaheEjK8A/PBp4ToDjGItF5k4KMAo5imcreay10an92l885aqGyA8GRUCrIqpxp0170PqVzAvghUrZZNOEwBhCVVqoEGggmqNs9UOdOqitJasvB4vXbJbF1384PasnG9lGlQQ2OLgnTGrILK4IBKg30SwpPKqKmp0SyF0mDJGL5cLCmTSZvQY9oXSyUFqbSymbQ1Asoqnc2qMZdVc9M4zZ41S1t37NT6F15QqdivUqGoarmqYiarbHOL0kGg8kCvZI1YVgUFlcmZdZTO5pQJSyr09aiIEkxllWtoUi7XpLIJoZQ2ulUVlAsqDvarXCopnclI6YyCTNqUiCpVVWMmoT5YG+ViMRpKpLJmHWUzGZXzeZXidOUK9WiIrLRMRkGlqOJgn8rlkjFWmM5J6QY15HKqUK/8oELon8kp19iqdEoqFQdVqpRUrZSsV8s1NSuVaRAqOLJM4krEvHD08j9AAetkImujqaVZ7S3jVQmwaAOznLFgsYyZPuB3RBTIwVXbzSJ6RYYGjLgJMFFkafAEY/EEk2WCUA1hr8aEWzShoayZkzqiQUIg05qpdFXphS2qlgqWo1yuKKxUVKmWlKoWVK4E6k5N1CPrtkjBDJXTLSrk+9XXW9D4tpwuPOcM9ebL2rpzj7p27rHedfbU8Zo2cb5ZCD0DBW3YsFENuUZNnTrLFExba6v2du9TKp1SvlhUx9gOVcpV9fZ2mxJpaWvTYKGkrVt3aM/uPbr/oUeUL5ZVrRQ1ZVybpnZOVHNTs/YNFLVhyw4N9PVo/szJam1tMno0NTaZstjctUc793arKSudPHe+2tqBW9G2rm5t2rrLBBFLE+slXa1qbGuTZs6foebmRvX29qmayWjnnm5lFGpSR4fRPJvNae36DWpsatKUSZPU2JDVQKGi7bu7tW3bFs2d0an2tmazRKgzeG/b2a2uPfvUkkvr5GPnq7kxp0KppEI1q739BW3dskVTJozRjMlzDR4027h5h/p692ne9E61t7cok82oGmS0dtM27e0bjAwOm0Masj8PjoeOpjr8FGBYXDXzAou3aMPVtCqBVC5XTWlYh48iedUViJkbcZXjziYVhirnB01vYO7bpCWDr9gCsUlUs3JzTD0qlcLED1Wqhnp02XIpZKgRqZmwUtLrLr+cAUj0q3Bl4q8qVVEqaSmYrMe/+GNVNVEpNdmUQEM2qxNOOEGDRWnG5CY9s26Pbr75ZjU35HTpmy7UxIlNKgyGam8JdNfdy7Vtxy69/fLzbZJwx/Z+7eveqwULpmtgkF62qjHtKQ0ORhOVxWKoSWMC3fPIs9q4eZve/rbXa+Xabt3xq1v15tedo7nHdmrjjoKmdzZo2YoNuu+uO3X+0oU6ft407YYspVCd7YEeX7Nd3/vptTr9jNfqgnMXalfXgDonNeuFroJ+fsPt2rFnnxE2qJakckFnLz1LrzlllrZs61XnpDbl0tJ9j69VJqzq3CXztKcgbd1ZVGvHBC068Vi1tgbaubOk6ZOy2rh1UNf9/Cc6f+kiLZg3XfsMZKjJrYGeWNOl7/3sF1qy6DS94fzF2tdTUUtT2hTbk8/v1u2/6tJlF56lGTMnaNvOgqZ1Nmj54xv0wL1367wzFur4BdO1uyht3NKv7XsHtLevEA2hrOtwO/Twi8VRiAdLAWQpFc2AI4OITyrqyE1YEmAYsqfPeMMV/5h4d8RubZzt0I1PIqM1HZY1ddI4TZs0XhM62u03cdxYTewYo/Ed7Ro/tk2dE8dq3JgOtTQ2qNLfpZx6lEmHuuKq/0dzTlqoOScu1jEnLNKc4xer2tOnSqGksFBWmC/H14JUKKiaL2mwkNLDy55W2DhOpVSrjp09U3NmTtSGF3boi//+Dc2Zd5JmTOlQ15ZNWrpkoSZPm6QfXnOHbrr+es2dNUPz587RuvUbNHXaHO3uzutfv/hFFfMDOvaYE1Qqh/rW1d8QSnHWrGl66tnNuvZnP9Hx8+eppblR6zes18zZ87VzZ5fGNGd12qLj9Mjja/T/fePbmjd3gU6cN1W9u7vU0pDWmImduv+Rlbrlxut17DEzNHZMi9Y8v1aXXvoGbdi4V5/9zGcVhCmddNI8pbKtWr1+vc0tZMNSZE1deK7WbezWl7/0b5rWOV5jx03Spk2bpcKgOjun6tEnV+ur3/mpJk+aqCCs6vob79R3v/9jzZx5rGZOG68dWzZobFuT2iZ26p5HntHN1H/OHI1pa9Gzzz6jiy68UHv3FfXf//1dFQt5TZ0+Qzu2bdWk9hYtPmmubr3tQX3l69/WnNnH6aT5M7Rz62aD1zxukm69Z4V++PMbNTBYNMvN1YZNp9B1+Avnl6PXV40CtkgRBspWB7X4+GPEUDaa94iGMWZ90GEzpRAEr+4QxvkiMj6iJwYoZ52+UM89+bjasM8VKJqmjFYOWGYl/e6Bqha95nTde8NTNjvM+Lqyb1c0zsZur1Rs0jGVZnkhVMCQKI3lUZZSXKOZVKwXn/G3CUAFwkrbsnWHJnVOUfe+fZo0YYwqpYLaW5vEwsrxx83RxI4WZZrblGvKatrUyUwpaGCgoM6JnWptZiwvbdu2V/l8wYYeA4VQazZu1iDDlSqz2iUTcCYls6qqrbVZ/YMVbdq6XZ1TpptSmj15rMaP71AmnVGhJHXt6bFhw2B+UE2ZjObOmalMILU2pXXlO69Qe/sYNeSksWPapQDrKrBJ5UUnLlAmFWhLV5emTJumF17YouOOPykSTJZvJQ3kC5o4aYIefOAedc/u1LTOyXrPO96qiePH2MRvtVI2PMoladfuHg0Wihoc7FdzEGjOrOlqbsroha1dGiyG2rZjt/L5ijJBoPYxbbYoNGPaFF15xeVqa2tVtlEaN36CTbyiJAqFkiZOnGCLMxXajVZnRSmaTX3VhOVoQSNTgHkO2uqlwqs6B5LEx1dZGbusfX6Nnl/5tJY/cKc6xrSbwFUYmqRTNqO/u3tAC899szKtY6O9E9SqUrJhCeoGiWB1gpUOuDJl+xWKJJJCJge5FswsC1WOVzAw06LRDaug/QMFlatVZbK5WNBSYlYGgR/X1qLJk07S9t17tW79Jg309Rmr9/UPRsud8ZJov/WoORNmJn2zTU0KslmbvAyDtKrxXhWssXSGSce0TbgiRKViNLEYhiz4BipVQhNaW+pFO5EfyQ+ltuasjj9uvs1XPPb4JnV199oKEKsm/LLZtNj6EW+TUZDK2D09CZqvFEq9/f2Mj7Tw+Ln60LsvVf9gSdt37zMLA4kmT1Vpm4EvFJnIzSqVASiTaVnbP8OKlg02U2mlMygw4pnAliZOGKeOCZO0e1+vHni0y+ZNxo8bq1Ip1ODggM15sfqE7ocelumluPVo/KtDAZsySErryMW+agrEFQa9DXsQKiwHwj1hVsueWafXve6N6hjXoWUP3q0J7S0m2dUgrZ19JV3wlss0f/FS3XHfg5qSTdmGL3pI9nHYGq0pDAZrKAp+JTEfwh6R6JkrisQWHqVqvPcCHRJWTGH5PgxWCFjeRHnky1UVimX96Ac/0MZNm3T66UvU0dqmTDZrYCPmD1VhRSSad1KFeReWQKkaa+p04YYrFpIZSrb609e71+YNJrRm1b97s46ZeZ5yDSn15Qtqbm427Y+FFFbKNhGMYtm5t9cUwdrVq/SNb3xTs2fP1bRjj1NPEV3ar8LgoJRLac26LTr19FM1oSWr3l1bNek1C6Pl2Gq01AwBsRbA69zXvkaFfF4/+dGP9MQzz+tDH/6QJnd2CvraEjHTSOBRZuK3rDDIaOP23abgJrTl1BDm1dHaaJZQKUwrLBasknfddqtuv/sBnbx4icZNnKx9O7frhHkzownTIKWy7QGJhytmZUbLvFGCkRn2aMyRp4BZhCxfRIOEAxb46imQeGxrcyG2hoyGC1QJMso0d+jme5fponOX2v6LJx++R+1tbdqzb1AnnXmhjl28VLfc86g62loVFvYY11XKBYWVvCkJBiXsmbDhCkqDPpyhCz8GRNWSAhVtk1MV5WIbKiMLI9fYrJaWlNK5rBGssbFRzS0ZYXc/+tQqvfniafqjP/qInnnqCV189hJ19ZT08GOPq7k1UK6xUZUgZcubzS08N5ilkGloUnOjlE1nTBE0tbSpHNJL59TYGthQaP2KFVp80vE6e+nppsCOP2GG1r/Qr+fWbNKM86erpTVQOpNSmEqrqWWMGlta9PzG7Xp+/XaddvpiFQvv1cknn6yJYxt13YNrVSmXNGfGVO3YsVNrN2zStq27derJc9S/83wdN3dO1MOnMsqm02ppCZTJNdgK1+at23XcMRN11tkX6PTXXqCZM2cq1yg1tY5VrqFFTc2BrSZBnMamdmWbm7Vld4+eX7dJZy6cpd++7A0a2zE2UnhBTk8/t0JzZ8/UZZe9VTNmzdHZ55yqQlX6xTW/VK6pTdAJ68Z403o6UKNBkj3eQXDuAdn6aOQroYDtUKYHjFrpgKBevUnUBBpsRgK5aNEuWsLNNTRq9ep1WnrGEqXTaT23botOWXqBFiw6Vbfd95Ba2tpNSTRVu9Uc7laq2KXTT1mgoDKooEKvV5Cq+fhXlCosYVjXrID3YV4ql1QKW/TwE2tVaZqigdRYNTS1a6AYaPW6LdrT06/G5jb1DFS1ZsNWPb9xiwYKMgHumDhFz23Yrhtvu0dde/qk7Fht3NKlLTt2KpVBW4zRhs077DmTa9FAuUFrN27R3p4+Nbd16IUde7Vx204pM8aWa1c8t1p7evsVZps1fuosrX2hW/c8tEzbdu5Rrqld+wYCy987MKiG1jHa2Z3Xhs3b9cKW7Uo1tGny9Nna01vQfU+s18133KuZM2bqxBNOUH++oG07tmvThvW2v2Ti+A4VCnm1TxivtZv3asvOveovpvX8xm3ata9X3fv6FGRblGsdp2qmScueWqmevlCbtu1Wb6GqnnxaazZsUt9AXo0t7eraPaBNm7dp47q1KhaLasyhDEI1tXZoV3de9z/yuHb3DCrb2qFxnTO0dsse3Xb3o3pq5Vo1tnZob39KazdsVn//gM0J2bZ4Ux7OsEeVR0JUXvVbJlHZXNigvBYeN0tZ68QYZ0arM9HkKY/xROpHPv/DpOp/FRCmOLZ50f1EE6S8YU0Zk7nYu1OvP+c0LXtypU5YfLpuv+cBtY1pV4UePCxrTHmbOirrlO5fpY9+7EPx8ixVxgJhDsSHLfFwBmXFBKopk0CFYKb+6SvXKZy0VN2ZaRossolqQI0NDdbTFvIFVSqhmpoa1NCQNUYfGGSug515ObW1ttgW7MFCQUEmY3sdWH7ODxaUseecioWiiqWiGpsalUqnNTAwaEOahsasBgbzSqUzam1pVrFQUH9/XsVy1TZgtbW12ETjYP+AyqWimplDyaTVP4ilFaqtpdn2pvT29atYKCmTyiiTy6q1vUUD/f3KD/SrqSGt6VMmat7sGQoLeYWlfp1z1lKpoV0/vekerVq3URxfyOVyNsOO7PYP5FUqsaO3YhPCbD5raGiy+Z1KpaTGpqxtRssPoKAram9u0pKTF5hirhb2ackpCzWuc6puuO0xPbtmo00c9/cPGkymRpgwzuYalM+XbcWGFSnb5Wu9XMQPUW93VHm8CgJ4wCKY92IVsT3s1nsuO1eNjRmzgqOtfimlkVOWdY/UKoyzw4hYxgMrzn/Uxlgc3mIIrECNbeP0q3uX65xzz9Pt9zyk9nbM43hVRVIhaFVveopy6T6teHKTKQ12jTIuCeM5j9oOVOvZGPezZbuocjWlnlSzenMzlE212Ba15qacsq2NQlDYdNba1mo77ZjLQGk0tzSrtbXNNtfYORnmNapVtTeyg5LNNSXbGDWWsy3saSmV1NTSpJagxTa3sZN07JgxVtdypaxxHc1i0pS0jY1NamxstnqzA9V2h1aramlpUor8FSZ8Q40xnAKVSuz6DNTRMdaGJKaE2eBTKZnCa21pMkWDVXXM3BPV3tpok8pdfX167P4H9PzGjTFuGcsDXVnxieAxjGCrfNQuKJnGVLTDFviQks1rpqpLRc2cM0fjO8YY/fOFQf3y7mV6/Olnlc01qaGhweZxqI/PBZXKZatXS0ujzaXYgTtjElcafh2Rc45GvAoUsDVKdnfbeRSmBuIJbrvhfBRIwAWxyj/cFoiVdwi8QM86lDwyi0Cut7dfbW1t0dCYNCRi8kKhMsqrpbhNlT0rxUxGdBolqhGLgQhnFFIm7AAJ2MquQD3pKUqPP17phjZbNeDwF6s90Xb3SLOacRQf6HFNCzwjbgybHrR29oWi42cmKK1jta30Ed6Rmc4wn5Ox0cDfViDi9XRg0z426RqnoVwTMttdiqXG4bNoptZwiqnGe8ONnZx0DVU2s5VtlYVlUTM8UykhuLmGTMwYgeFiGSnbysACJDunhKOybNXGJoOjCU7qaGVVq+re1yNOMFMd0rHjtYk5ITYDshXJl4CgW+2MUNS+KOCj4deTAszpIUNjKnv13svOU1NDNK/HyofxCe0a0LFE+0IynNs4nMHk/GABxomjgQyZuIuYrG0svezQzDyCEtgxt8C2QeeDKWqbOSESawTHZkbjbfGoyeQRciobH/xqwAIpZ9nTGvW2lEk5EMasoBiLSFasJq6OiDFFVsM7fiYVE8MIdSLffqSNUIooQ7KY7A47QtlOssSqisnGWKEZYn4sPwLh+XhCoTjtKD/b1KiJLc21JW8EnJUltvRHXUqEN/ms7vHhgUgnRZVDqca6aajOUdGmLCdMmGQ0tnob7apmMZmCtHaME0cIRjAiMtnSdSL26O2vEQU4qspGghT7iixEHQpcEZsfnNCMrZBAGZb2/0eDYWZ/YjQQDX4oCpNKe08KfpG9klI5M0Z7zRrwvHFvbzZWdIy+JmSuh8wS4a2b1ixnpmp0oYBIhVGQLRWNTBovduQUhxwT1ZpsSeBxLUxJDAfS03INzHpgbwy9SCqyN42cZv1YEk8PrCH61mhlUOI0yaR1RbN71RQm72MfLHZyd0Q86wAcffy1ooDzHnyCSmAjIsGsUZOL4dHNDHbvHD7mFb09AOe9JNyIlc34SICxIVjMnGYk2065yESPhCOqJVksb9Q1Wg9rPW0lSov2DE2Dgojt+o/0VYyXFYGisbITYsULU1gjVYAMVnqse2gGNBd4MQ8T5XsR3BjfJNQoTRLWfrFDPUHydXwf6QwX7hpb1FKCh1clslyo1pAisYQ13RnhsL9CI4XD9XuukTUTwUzGe5r6eN578DieKfOVhpjYrxTMKMwfbWWHf6LNkrRHJHtODNpnqI0y559+sscclqsx8CG2n88LGLvGkuZj+3qkDLQljKphXilM4KOBULREHDEwE7XR0CeadyCHwXXrDODIuI3b45Ji2BHVoorYigEg2CLPpqf96hcpB+YfGCpEk4MMpdJD6WLdwxwHY0cr1Muxp/0A1hQRPTzzOZbH05v08zBSQPqjDWPkjygx1OambOP3QxBQmNGcC5O0plBiJqEkVzSennjH2DCx+vkbUu2PX6Swho83+KnA5k4oh7Q1y8YLPMRrhP8hZjqa3CgQuc0IlQ3z1sbwemyMDFHIOsWojYPwKLWHCHP07igFjlKgRoFnVz6nxlxDNCEeK3bcVtBRouzp2DKs/x+WEHd11s/s3wEdFHgzk0gZw3lRpgR8bhkgeJ54lFDLEpnxtccRboBCT5pWlvMqI6TidaHELlZ8IaRtGFOfFmKyxGp4BSll0pwHiYdMMVz0tFkvrO6YF7J4qSz2SEZjsIGOuGgJLfJxQmPh/csDeJgRU4Mb3QAf64Ehk02a2ut4iBfj4jhxZSWEnj6yqEJbWjZLwyaSQ8OFZ3ogc/EIPCyE2CLZL19MPdJTB+AnA/XByxX7ZAhWv7gS1NtwwfJhVSe5euN4g0Qd0SPrKirH7yPsmJJhtWrIckpajPW0A2yEb2JC3JCMWJFbK7qufKtI/Gc/9OJ09i62PK1MUI2fDWY9PKN7BLAeR0sfl5Wkw4vKiNN4fV8KbweZvMIxxqJudgyDJ/j56wzMfjjD/qxzaJAdqQPlcvjJtHHbHCibxXleHjhwFwbsC0nrwS2h7apMVwfs7AmMWKg22L6RzmyfTjtmjE1KsnLj9ErCYjmzqam5Vv6Qm8jIPZxtkouHT7bobK4SA2UaOH0cBTaOsemMelVxj1gNlWMJzQRuyO0kCs/rjtJgr4WF2GMUeCGU7D+JGClQJi7Pl12JAwa9CRuDYJhcLiorAhbtbyHO4OVy/rp2jVZ1qvvlAxfHrZYQuclGPMYyNIoE5WM9WayM8BQXKdhIyJzG4GvBlPeQGz3fQwJ+BJ4p1zY5GXdHdAVHIJifGe6gUZzH3sfLyeYAm5Ux6GSQUHgs/UfLzaxUujxFCA39ZYjpy+u8dQXoS9Wg43SMlHZUJ2/rCI9o2MmWBnCM8IjKMBqAR6xVPC5ZL+jp9YJkdDJW8bjsIWwP5i46Fe3K2HhouEaNQR2RZdyDQfPlphmuLsO9Gw7+fuls3iStAUnfume95s7uVENlwFz7Bamc+qo5DZaq2rX8Tn3rr98FG9oCl8GN2rlWBHtRnn/+eT399NOaPn26nVFhM5UJBWux1tPHe01MmFPmBvHhhx/W1m1bdfyC47VgwYI4fbRYzYr1tm3bzFScPHlyraxkHWBcvHt5MCsk7tGtzJjpokW36KQu3qaY03GGQ/SwcHbv3q377rvPylu4cKFmz55tYClv/fr1euqpp8zRLi9PPfVUzZo1S5lUWps2bdITTzxhe3bOP//8KE9cruM1ODio1atXWx2hCyGiTVybgHmeyEUecQgagpJKRZZSJhMrhLhrzWSYM8G5FPNMWHZVpVOcO4oaBlxbW1t1zDHHmHBz+NGDl0vJbop7nAl4vJ/HjEF8u8b4mPVVVy+LrFTsBDf3Dpt7YENr8yMLjrzjMHS8fu9pTfmwtymuo5fn+4qoqwfyWD5wtLbPmkIGptMMNxacln4loWZS2D6fofKHgznEfcPF/m99h/q2X8SEE1pSeuuZLWpUi2BvBA7/ZRzF+3/XTNVuOxsQ7YtoMofFEAYAEXFh9ttuu01btmyx4dBpp51WYyYblsTMRTrLGYZatmyZfvazn1m6Jx5/Qu9973s1d+7cGsU3bNygz3/u83rjG9+oyy67rPbeb5yZaowYC5fBZ2BWZ1mSzoMzsaUNQ/X29uq6664zBYg3bhThhz70IU2cONEE9ac//akpkAkT2HcjO3DHobsdXTv0ve99Tzt37jTFwzDu9a9//YvK7urq0je+8Q19/vOft/wwO8OGtE00hzWhIhILxUhLOyCAiXrwjGXGUIj35kvErIp0lA8rJEhrz549JlDU2ZRCvO3ay+W0B3HkBxZDL+IIlie2PBw/4qznr1MgpHX8vCxvY/J4XDQUHKqn4WFDziHfouRP4gEupuzx2B8rNcfXy7IhY6w8HEfSRso1mqewSh3BP6NTgZjcZ1SOhsoKCj3qL4TCTfLjm/La1VPRQNBoO1z35kv63m0b1VDtU0dDVW8572TbzpZUIFgSWCAXXnihFp+yWBs2bLAeGmGkN5x9zDHqGDtW3d3deuGFFzRnzhwhlO9///t14oknmvvE73//+/rbv/1bY6Jf/vKXlm/fvn1qamqy5jemiRmbFyiBnt5e/dc3vmEMM2/ePL31t95qR6GIe+aZZ7Rq1Spj4osvvlicMrZ8QVoPPPCAEOpp06bp9NNPV8rUEWQAACAASURBVD6fN3yvuuoqS/Od73xH4PDud79bhWLBGPjb3/624WYJYkG75+57hFL567/+a+3t7tbHP/YxYb1MmjSpNg+CKcwc05QpU7Rx40bdcMMNwqK6/G2Xmy9YhGBgcEC33nqr1qxeozPOOENuySxftlzZXFZ33H6H3vCGNwhLBstixYoVamlp0YwZM9Te3q4nnnxCA/0DNZi4p+SsD7ARJmhLfaHRW97yFqtC184uPffscxoYGDA6gdMVV1xh+VAcKPjbb7/d6Pf2t7/dlKbXnasL/MqVK3XjjTeadQVuxx13nNEaa27c+HHatHGTyA/udDKkp03pMMaNG2fKbseOHVq7dq3hAZ0cD2h3//3365FHHjH41Hnx4sUaO3as1Ys24R6l8Vu/9VuGHu1w/333WX2BddFFF9XmnpL4H6779D/+4z++Ki4NDxfCrxwOPU2gEmdIUpGlcetTfTp5cYeqGem/vn+fuVIs9O1Td9dWtVS71ZLuMy9ad9z/hC593RJFMwJDFgjMglCuWbPGzpY8/vjjJgh79+7V//k//8eYaurUqWbq33HHHeZ/FbP/ggsusMZFuH/1q1/pNa95jZ0jefbZZy0NeYg79thjrdo+OQljIRh333WXKIt7hHPG9BkmvDDjd7/7XWPKRx991JgXxqa3Xb58uW655RaLw9KAiREslJoHlBzKafGiRerv7zcB2bx5s9atW2dldeIvJKzqoQcf0qJFi8QzJjWCjfJAMXkA156eHlNIvAOOp5s+Y7o5Urr2mmstHqFEETN8Gj9+vFlFCDGWDUM8BAmFzDOCRT0LhYIee+wxPffcc6ZQKBtrB9pTL4T2rrvuMmWC8IIrymLturX68pe+bIoIAQY25TIERdlcc801Zlnt2rVL27dv10knnWRtQx1ceWzdulX//u//bvSls/j5z3+uU5acYmV94QtfUF9vn+Whntdee61oe6wSlDt0n3PsHK1etVqf+tSnTBFSbhIP4P/3f/+3KTlOPgMf5dg5uVN33nmnaFvaHZrBK5M6J2nVylX66le/aoqQMmh3t4q8TQ72imVpCwxYXvEqDEo5+RuVFghTa4MK9OjmUDvLoXqKoe5ajvMeqZxu1TEzOjWmKdCJUwJdd+MuvfeSc806eWbtLs78vii8613vMqb77d/+besh/+u//ktYD319faYkYEIYHYbAGkCg6PlgJn40CFcsARrscnMMLX3961+3HoYCLU1te7EMBr05DExACBBOGJke95JLLtGZZ0ZfFfv93/99nXfeeSaUDJv+/M//3BiYYRIMzLChXCprb/de3X3X3SacH/vYx4zxYGosGYQWRkRR/sEf/IEJGvMfWAwEJkXpDalbPcOCO3COP/54vec977GeHQHA+oH5UWrUlYByw6E1SpMeFyXwR3/0RxaH4qHMv/zLv7RnLKZzzz1Xn/vc58yyAQ74tI9pV0trq7XBL37xC6sv8CgTgTxmzpzIguvp0Tvf+U5TKtAMpc7wExyY4/FyuKKgwJe6EFAiKCbmg2h/hk3QJpvJ1joFhoEoK9of5e11pA5YD6973eusg8A6ufLKK23ICB50CpR1zz33mIImDvgPPvigpe/a0WUW7Ne+9jXDBaX6k5/8RMctOM4UBw6psGYp80iHI1/Cka7BIcOPPB6gCH56072aMX++Zk5MmxsBpglmTuvQsmc36OGHH9OXPv0O5StpbesrqBzkVCowM/LigDJAWaCx8apGr809Qo1VQU9BGoY255xzjjEUPYrNrLO0x794DAx0lAABZuU9ASbE0iHt+HHjbaiAsHzz6qvt2D+WAMyM4qLcJ5980spDmBkfY1WgBAxuKmXKavas2eLn4+fenl7DlfkNJlVnzZ6lhsYGExAEn/DDH/7Qfh/54z82GOBjQsVyL6s7QSAsqFWrV1n64+YfZ70rPTtCSb0xrTH3Scu8Ee8QHHClXOiEULFahMVgyivNR72qRk8UXk9PrykZBJ74hsbGxHDPijYrhCEWcznAY3jFUKm3p8cSLFmyxCZ/oTc4AYd7Jq+hO3VFsVMvrEuEGmuPd7Qx9WQoguJHaJcuXWppSY8FRaBu4PC2t73NLAg6EurIMIb6Aw88eKZ8FA44ABP40J08KNOzzjrL8IIX4CeUIUoCdxO0b39fv5UJDPAjDzStV+iW6DD9GX0KhHWu6NCqGltb9fbzJ+uxlbs1d+44pTOBVm6YqFmzAj27ZoNWrK6qh7mRCp/OxA1r5DC5nvYwAkxFQ/EdFxiCntgVBnH0wKSjUWFOxu6+VZU5C5jGewzSk8aW+mIlwkQnZjswMLVRTB/4wAf0mc98xpQLpix5MOFhZhjeYaJcfELUhDyx3EhdnMno7f/lX/7FTHasFMxwVzIwN/Bf+9rX2pCBfhiFEO3piJQdQsrcA8z84AMPGpn45g3zPAgI1hV1LOJ7JFY21Admx3pA2DC7sZagAZ09Vg1pbJUmCEzxOP0RLPKitCu4XIzniHyuk/oDk0C5/jN4qZQpDzPNU4EJqcMlnmELP+5Rfj6MJD10QPApn3vgUhY/D7QBdcZXLPMSX/zCF0yx8448DDk8wAvGP+mU4QttgI8SIRDHs9fF82GpUCZlMddBOkJHR4e1A+0K/kcyjD4FkiBob++gKYjxDaG2r+9SIcipmM9o/doWqdirnds3aeaMqSqG7jx4+OUxZ0gaEOZg3HnPvfeabxAEgh7h/gcesFUWGhsGgTkwS2lsTFpcF3BPAJ7BBNf4niVJX8UgDT0QDISpSmDsfO+99+p973ufCdnv/u7v1uYiGHMz4YiwuZAj6DD2hvXrjZmxmBjnE0hn8xphKIY5OEiaP3++xQGLe3yDjBkzxiYFTznlFKs3SgylgoJjqOaBoRX1gTYwNQqTZwLCg2vGj370o/aMQKCAWO5l/oQ80NVpAu1QJuwV4R1xwItoH5VIPqBDT+rLJC3loNDp/X2JHdikTC4hA4c2+p3f+R0bzgCRernFxAQrgTQoFZa4mZ/BAmVOxvH0K7g9v2aNKfn/+I//sLxMumNNQguC1Smmi31FMAEfnOGn3r4+G+552cxZMXfigSEW7cEwmeCdgscfqeuoUiDGMDHjMjDAqzqOymZPGo9vZw0E0lOrenXCnECpYr/edO5sVSuhinn7JJX5HhlOnwMXC4EeAsbBKdFTK1bYhBfMivAzFmcsDbMwMbr0zKW6/vrrLQ5TlaVaZ2xgEGBKHB4TKMN7OOJRIEz0sQLR0tyi/oF+mw+gh2OYxHibOQfMXcbOn/zkJ02hYGUwwYqCwErhinAwn4JyoDdFEJjgxfRmXgCzf8HxC2yehPE2Y36EDkuLiT1WlCiHIRXKkiFGtHkrmhuh92Ro5QvJPGOhQQsmBZlL+PKXv2x5UYKsNCDAKDJ6eacHNEYhE8gLDGARSJfHqXSsAHlGKVPfr3/t66akHnroIVNs4yeMN0GDvsDmR3qeqT+raaxEMfeDtcQqEPMw0AmljaLlHmuMuQxW11AoXGkncPJ7nqEJcIGJ4l23dp1ZpFh1/KgX6awe+bwpPRQZQ5arr77ahmLwDDSk3nQGtM2//du/2dCLuSHSw1/wCHQhAJO6OWzeOS0twWH4M+pWYThexhncwUC67r61es2SOQrLFXP8O1AOtLO7pEIlpyeWr1NhX1mrVu7Qxk27tWlDl55Z/qjedenZirc10RzWBDQKFgWKgl6AxoZhfIWCeJ4Zg3Olsdk89tzK58x0Z+zM/glCsoGBydiclY0oks1IEcO3trRaT8+EIxbMguMWmOKAWcADpkQYuX7iE5+wVRbHgaEQKxJYCiwlM15n6IMSofefNXu2TS6CC+WTj2Vd5gZQdCgO4sCLZVYmJxtyDfrwhz9sStBNZ7c2wInf8QsW2DAGJmc4gyWD4KFEqAc9PbAZmlEm9Uf4vP5OD5QewxU+hUHvDL1R3lgZWECejzrRBqw2oRwRfCZNUX7gQBngAJ7kH9M+xpZrGe4Bk3rt2rlLH/zgB23ICFxoSu+PogY3BBkBplwUHtYU7wjzj5uvXDZnPAG9UGC0xzvf9U7bBYBy4z3WIPfggSKjHsxDUU9wAT5tioIDPuVSLyZtUXI8/8Vf/IXhjEJKwgN+MtQ/J+Pq7w9mFWZUHaaDidmoiz2xO5Cu+swN+uQnLhE7JPj2J1OM2/ZIxYr0ra9epyWzJ9nyJEKbDQY1tqmqq975hhct4yYJTxkEbygrM25Eeg+YhHfco0g80Gsln5P5PE3yOly8w6+HRT7iwAnBw6z2wHsCeCUDMPyd18XjXfj86u+xPBDO+vQeP9yVPEl8SDNc3YZ75/BGiqNuTPIm4Xu9RsIRWKRBuSTDcHgi2MxtIfAscaMAWXlxK8nrwnWk8pJlJO/BA8UHfObNgM1wBiXN0Gy4Ote/82euHg4FDyxjFKXliZdx4Ql+vOO3P5W8lP+lVyNE7MgZEdqzfbvuuG2T0iEewquqsGKRalYm1ajBrrX6+09Gm3OS5Bhaxt1fs6P5WcpEgAg8G4EzGRNemNkVhOGBworTkN6F1RudNAhodM5hSOD3w4UPh8eCTj6HDyxge3A87DmMynWmIg/pKcthkY66eCCO4Lg5ruQlzpUQz+DrsK2eMRDwcaFEiTHEwQqBXggn39YhPXlJxz15wAMFUHtOrCo4TPABd4LXhfTgAzwfWvKOeK7g7IqCZ+69bK+X1wO44MSz0wg4zO0wvCM/w0+GECgPYIMbloAHnslv5fMVvkp1P5jQggAtGOsl4ZMP+FiSrjyMhuyEjIPTifwOG7wIfvW0h/M6qiyQiHCRD1XOwPzHj5ertz9vcxtMVuJLhA45pbKmNg7qqre9LvK5ypkI673xZr7/oTNvDJiGhvLGSj47I3oceXjn73mGYfy9p/N4f7YEdX+M4WASBmYJK8LfOzM6DGDCfBZiRnWQtffxTlfSks/y+MGzWAhreeJenmfv6YfD22GRjnt+ji/3VnbcUfp73qFgCI6HPcR/HAZXAlevZzJdfb08Le+TODs84mv0i2kLXH7Jdk2W4ffEg79f/X0SXrJOpCM43l4Xp4Hn96vDJR34R9PFUX5g8N7rwdXhev5DuR6MBTIKFQjMFtg5l5cyv/gqnOlwvJ/FU4DmQzYCcShtcdBpX2mjH3RBscCRfiQmS+LC/YHSHkq5B0pbX6YLxUg4AiuZJwm7/v1LPR9KXtKiFHyyGNhYLgj+cLjWl50si3viPXj+Q4HveZPXlyozmXa4+4NRIC8lQ8PB/c19Z4LPQn7Vxm7lYikyuZM1ijSG9SBJa2P/AUsyw+G9d+Y5vFCHh/ZSZSXjk/fDQzs8b72cJPP7u5FKGCl+pPcO50DxB4qr5cfqSwz1sCxGyjfSe4c13NWsyoOEP2z+ugnU4dK80nejS4E4tTCLGWvHR+Hx6WC0jjsBGrtqk530zp4pcbV3Qz1GIsasm/2fjz69XAoklcjLhXEk8400zDhcZR5p+IcDz9GnQMwKMbvdVmMgYhD7EI1XZX2wEnnjsnHy0ITi/kQ/qkT2p8fhe3o5PfZLlf5KYL6SvC+FF/FHGv7B4PBy0ow+BQKVakqEh6qCStH2hgx91GVIMZjHqYAPb9uhlYjG5ktxKA3zI8xLmkvBg2iFZM+avGeCDFj1E6IOknjweDWYDbx88rEeH8fT8Uqa7sl8yfeelitp+L1aPexIdAOHw0XLwwkrSauXuj9QuQeKeym4Bxs/Utd6sPl/89Ix/Ih1AfPf9lW7dKOUzkl8ItN+WQmvTumsUpl4KY5JrtrQZUh5xC/NjZxPtNYThYb0kLz3d1xNKON0pOE5GfzdcPnr09bnSz4n74eDRbyV5Ss1CYH3vJZvqEo1IbR8jjeH6+xzo4mEDiBR33oc6p8TWV50ezBph0uTfMd98jlZyEjvk2m4P5h0yTTJ+3pYv2nPo8sCSXzgItpQllKvpCc2h3beIx0WFFaKtnmsoEaVqoEmZfq1dC4nKysSy7mJpVJvbJwQMgMfn6s1C8KW7RLLpDANvZ336u4Vy3tAlE8EI4KaXPZz5eL7KLxcvwLDmdKUSTxv40uUpDMY8eDMlxE9v8clLY1kXs/vuCbxdBhcwaE+Dtiez9Py7HWx/Rv+ac14wgk4RifzUBhZXPvVMV7e9TpzdcvNy+DZ65m0dAx2jJOncdgOz2Ek8XYacXjQ65iM93tPR9nAo2wrE4VsVupQn11r4wSfOB3tOow1avATlpOXS3rg0YbUy9svWV/SJGnB8ysNo0iB0BN6bxitxOC3kv0g371nnebNmabGsKByEU8hafWEjRrkKP+jd+vUv3yn8NteDkNlzR980joI1d/fp9VrVuvEE05UNptTBcciBDyux2v1NLQxqDm9DVVNRe75aFDiaHC2JnO8ncNZbFkmveWLlYsfSmOLdjI4bFdOFheXQ5wrM7O8qqGqwZCLPmd48jizgRPbmDmjQsBNQNLhEGdo2IXJ5ijgcwaGrdbk47AaW8C5f9Ob3mQ7GQ1I4g9bvvGRyhZ2JrJtKTTNADKihW/q8nqZQATpmlIxUHbOMHZFGCtM6sJGNgKCHqYiAXafrdTBBdBpQRrKIdTyO+1wVhy7XbS2S5RJHs9nmWP6eTraAhw8jd97m+7XJrHChAfAwfFAGdh9XBZ5+eeBOOcfhxd915htkUOK29LxOYbIhPbsh+U6ihTIMPRi63UqrY6WlC5Z2qgmNdo2ddQDR9hoqs88N01V6zQytvSLaqjfF7p79x5d/c2r9alPfVpjxuaM6ZKl0bj0SDSk914WH3dGxC97bJkdrqNn5twGuxg550GAsdgqjeMcHAXVKxBj2sRGrmTZfl8rd6gDjBTaMPk4c4GPVA7VsdMUYf/d3/tdTe6cbDsxieMMBmc+KBtfrpyrwQsYfj04oYpyyefz5hyJ7dDJsHPXTuF06XOf/5waUg1WP6/Di2gU96zk9141CatWL14m6pa890NyCLULnMFIRb02ZSPobhU5/BpOdb5ZiQdPD64kgD8SPvWw/VSvwUjgDX78PCTveZekgccZ/sklZdxVJDao+S5Xh3k4r6NYgaQVbxNTqtyv/mKoYiitXN+nrr6q8tUmVcOM9g4W9bMnBtRQ7de4xqpee0Lni3yiZjJpccKTDw1zUI8DUTfdfLMd56eXxR8GjUyDczKWA2uuHBA+GBCXdxzF5wQtB9dwZuM+UvHPeffdd5tAujACj56aHpd/wOaELv45eY8PC05zAhumw8EQG4NQTG9+85vNMnCcOCCG74tp06fptWe+1soBr9/7vd8zXuP07u233W4nZNkWTnDvWklmXLlqpZ1y/dd//Vd7/cd//MdmSXGIza0jFGkukzMluGH9BjvvgSLCsxhCBr5eD5QXebHGCCgyTppyLgSrCDpzKpb3KC/ecQgOT14cEORUMsIzd95cO9RmSjys6s7b77TTstCIg4wEXCtwFJ6ygc8hNugHTtAPz2m4TkRB+EllyxhbHtwDHxrz4zAcZ1g4jAhOvAM2ivX8C863k82c0KaObFPH5yt1oR5YoSg9rmyN59Qv7QZtHD4nckkPfNvertAOJHJilzhwJ+Cywd0JQOclpy7ZTwl5HV7udRQpkNjOjUfLRUx7hhiSuitNKuUii+Pa2x7TaQtPVLncp76+Xh0zrqIta5crDDP64fIVOv2zH1ajmYLYJxHMSqWqShnTM/LTQS+MzweYGG9k+OZAYWD240UKJzmcoOVo+Gc++xm1t7UbE8G0CCinOFEoHAknLUMXBIxhgvcsNDgM5QFGxK8qygDGxT8Ih7w4AYy1wJF7mJfDWcC98t1XWpngiXLCbwYCghAgVO7YGPhjx3Zo9+5dVhRWBYz9n//5n3ZcHoWHPxACJ1dxdIQC44fgM9xBgXpAafEPr2kMLRAIaEE47/zz7IQtLgIYzlEPcOIAGfRDsQKP9/jiwKcGp1sRJAQc5Ux9OWkMjihb6vKjH/5IM2fN1KWXXGpCdtNNN5mCwEcpivfU0041pYFzJpQOp46x+HINOVOoPP/4xz824Wb4hWWGW0dOXnugLWinb33rWwaTe+j693//98YH//zP/2wnjTlZDD1oX/gBGJSFYuKkM8oLPx/gQVtRX5QHCgE6OfwXNr2ge++71+DTzrhhtFPRDQ1WLorT6rVhgz772c8aXTjBa201ZOA4+i/7OooUCDRC4KIxJJ4jHt4cqquAT1TpjsdChWWpkmrRtCkT1NYUaNH0QL+4aYeuevPZIv2z67pin6jA8V8EFyXCO5gNxkHAOKoO4/3gBz+wg1AcvMLTOcyAUMMcHIOn90OAcSYDI2FRwAC8o9fAHR4BhoNZrMT4sJg9SNrX02MK5Ctf+Yq9Yi7ihc2RG8Mf/ehHZnW4j1SYH/cB9FwMRzgKzj0MSm/OkMp9pP7y1l+aEP/pn/6pwcVSAW/DMwhMQVJPjqPD/Ai6WzZ8j6V73z4TKMeTK0oQ4UD5QA8sBpwnQxfKp57u6xWliHBgRSBswP/DP/xDA0c68MErPGWiqDkCj5tB3AMQjwIhX2trmykb3v/VX/2VDbkol89SzJs/34QU5Y0fEmiOBbjiyRWmEG+59RarH97VCeRHSaEsCSgP6sScEW4PSYclQeeB9YEVQ0cAfhy9Z36JZ68jyu6b3/ym+Sqh3ekMqAN40HbUAysEfGvwu7v12LLHDD40wJpxH6kMgcmHAgceHRnOvWmzwx1GmQKJyIfoM5dxzS33avb84zVrQkZBfg+fMNOMaR16as0LeuDBB/Rvn75Sg6VAW/uLKoZZlQql2ObYvxlgXg8wB4zFOxQADAwjYR4j1PSc9OLMY+DWzntrrAMLIBczpVsYpAGePxOPAMKwvMdywY8GCgImoseC0RYvWmxOaMAJHBB80iMoKAuucWGGK2Y3P4SBnhmv4ig6cEYxYhrT+8Pc+NUgoCD5/dmf/VltUtXwrNVD5kkdgSMwQYzwUH/ggQO9Ms5/CAgDpj49LQyPcmVOZXBgUKVy2dJCK4SyXKlYLwt98CKPhQYdLD6bNeFK0gyhRigZFtAGDI+wRvCRCl3IizJ0nLjic2Rn105tLW01h0AIJEMnrBBvZ8qgrakjtCEeOLQ9cPn5EX+UA+3FMBIlRVrqiKIBDrRnKNbc0myKBNqAKzRx+Dw3NTba5DXp4SuGPCgh6AJMhskM9ygbpUU8NHZ6+NWI/gr+jD4FUtvPITU0t+i3z52oZSv3aO7cDoVpafWGiZo5K9DTK9foqefKGigGyuMTNXxpn6i0A0wHk9BANKZfYXLiaHDew+SuGGAuBNNCvKQXCUHUPMDgh39NBJuAmz68gwGPCUxMXnpP3B6iXPAQRhwKAWZGgcFUCCWMT0/tzA08h+v3PDMPglmPUOMjlWdXMuBHfveR6mXxnrzMefBNXcreHjt5BvbYjg6zdhheQAfqhEAAywMCgCUCLCwj5ge890T5OK6M4Bj+WQhDExyGGEkfqcC1owqxiwXagHfA4+tvDgsYtIHRuc5NAXHMLbinL+jgLh5t4jReqQFvAjCT7c076gstmLNCYTBPBDwUB7Rzp0nktXTxvBYwwZefw0eJQRtvA+oCLekgKJch3aWXXlr7NCo0o1Nh6MgQFViHK4w+BQLl/Lu4/YPaVwo1oSmt7Rt3K6+MioMZbd7YrFSlX/v2btGMmVM1WI13no1AdxdwrkxquYlPQ+MUBgZBYBEGenIsD4ScnoM8MAxCtHvXLvsAFT2u+UgdW+8jdWjwirPjT3/60zU+oIdhToHhCIE5EOYEYHYYCs9jCD8BN4jgQK9Gz5nNZGw+BMZmLoH5Aj4dwHwCgXkG8CeAG7gy/CBgXiNMCAhpsIroXVllwE/nO97xDlNYF114oaXnDyY7gsKPCUoT5lhJMtxg4vnjH/+4pQc/FB8TjfaN2XgyGrohDAgM+R0e74FpypvBoKWLzCFMeeDxo5z169aZEEN/6ohgWf5YuYAAbUhbMCfEcjWBOQtoSqAsAooAWmOZMMyiPbDeUH7A9EB60kBrH8LQTsz5EEjrAm70iYcd0Bf4lA18lA9Kli8XovjwiJbkB9qlvb1NW2N4ER2G+MfxeaXXUahAQj5gb5On/QN5VQvSjIntZn3kU9KKVf2aPytQmO/Xha+dpXIlVIkvMPAVu9DXbfYnO0zMxCRXTGR6EzyaY6JjJfA1NBgWK4EJVhoe5iA9ygXmI45xLHmIJw9CkwwwJcxPIB/5CZwI5T358W4Oc/OMd3MYD+bnY0sIuk9e8j0xlAiKgOECwg9zomQQNOYdYEKEk+EOcya8R5iZzEQx0puDK/MYpGOow0Qe8FBO1AX4zKn4sXdwxUIzesVLjcS7AJMeGPTQ0JFJXkx6rCzqj/LygLXh9EDo3ELgnnTEE8CFZxQBE5jMT6GkWN1irwoWIJOewCdY/sEoP/Xi+y2sRD39zDO2sobAMw9DmzLJi6IF9tlnn23L03QMtAHlA4v6uj9T4DOkoG1pE+a0UKh0KKQrlopGC1c6Xg/4hTkihilYl0n4rCYBE4/6dGDwHPEonFK5ZHQBDw8O259fyXXU+URFE7DU2qdA192/VkvxiVqqqlAJla8E2rmvrMFiVk8sX6OBvXmtWrVd69bt1sa1O7Ty8WV691vOUcbaYugL2zzSwPQMMBIz3TAZTAHzIcgIPGN0GJLJRhgY4SMOJiIvPRMTYAwLkqsg3uAwGELPGNoCG5viZVwYhi+d3XXnXVYucw3AgXHonRA0mB0zGM9Z4ELvykQb77Es2GiFMkCgmKPgq24oHISXj2aBB+WTjwk9elH2pTC7TznUAwWEAkBo+aAVQmYbmGJc3YSGXqw2AQtFiBJFAaHwEHImohk68d0X5hWgGwoLvNzcx4TnGXpQPjSeH/tIhVYMZXyeBcECd+Y9sBChNXjzSUjq5YocoXPljulPfjoFrBSsBJQUPlvBC3xoZ+hGPHjx1Tg+0QnNth9XjwAAIABJREFUUBo4iEbxJusLTbCQUPa0B5OuPKPgwQXl4v5SoQ2WK0oCJU8Z8A3tB3zqwHuuKETcHkKTj//px22CHsXt1hE0PJTA3BntY/xH+8UWHc+1X5hUTYcC/Tc2bdnOv+xWSr/3zzfrH//ijWrk3Aa9ekratlfKl6Sr/+ManT5/ijFmkM4oV8lrXEOo9739vEiBYJIkdyvF9ICcRvAEfWBmBJ3etL9/wD4EhXkLA8KMNDCMkmxg8sBUhOFgJsCPmIaeHZPZr8k8wPSmh7k9kNb3lfg7ruADfuRJpk/G2XxAwt8qcQhmffok3Pr74dLzzhmW9AdDj3q4nq8ef+gOfvVtlsxf3zbEDUdThpAMUVEQKCiULz5SefZA+fU4eFz9NVlP7p9c8aS2bd1mihprEQXr8F8OzPry6p9ZYkehG21iBQKtnF68H4VDGMajbFaX9m7dol/d+ryy4aAt7oZBRtV0i4JUgwa71utvPhktnyYJi9qIlmKGxrUwOEzmAg9zsQzqTI/ZzlbmLZu32NwEIOglWE71YQppUSg0DsyQVCbWgLEQc5+MS+IGDqasfNI17nHo9XkPXIftMBB6enIPvKcMhwU+BOqWxAM4hCQ+KKv6cjy/JY7/QB98oHrvRlnQ0MvweIcP/VBqVrdUNPdBHHgDH5zBh2dg8A4Y0JxnSxf7VqW+0Nnr4vWlfMcB2OAEzBq8GEfSkMfL5JnygEePzd4S7mlX5nFQHsChTK8v8HkmkJb6OT1IS9k1WiTwYF7KV96YFGVpHSuJ4O1IfgKT07QH+CXheb0t0WH4MwpdGkY+UZlJ+OY1T6o3z9fmylKYUhCmVAlxjFxVZ0Of3vdb51gcfbKdQQilXJZtZEPKw9uAhko2Ds8kG6439zwwOcLt+chDOSPl8TI8vcPxK8wDIxHqYSTjkmUm35MPpiPY+7gOPCfzOJ68T5ZDHoLjkMxjEYk/1N3LMlrFw0BPQjwhCb8+nZfn9EjSkzh+CHcyHfeOH/Adh2R63g/37PmS9XqpNiEeHOrT8Wx4xQcJuXdck/eOC3HDBYdPHsePdI6jlRFndDoNB2e4dwdjgYxCBRKJKH7Gh//O3BApq5V430fMALgnixjuxQpkKNfId97Tegp6Hmdgf/frdIX5DpXpDhb/JOzk/cHm/3VMhwLzyWLqhJWC4B8uGh5p+PU0PRgFMiqHMIh/VqEKxYLSDC8YwJi7j2i5lng+5JzNNUSNb3szMO1jEtPR+n091Q/wDCOhNDzQSxwN/3soYNZSXfseLuUBlY40/JfTEqNGgUTGdUwi61mlbCayQUwXuEKIe128r9can6EIAByIpz1Eio9khh4imINOfjh79sMJ66Ar8BuW8Ei375GG/3LIPWoUCMTZ33DgBGs83q8SF2kIfISw0Mv/aJsCY1ie481kL4fKv2F5UBZHOtSUMz1rzbQ70qUehX+4KTBqFIgbDZG14U+Qs6og9Fn5eAhjyiJSKFV2naWGvjBmDbC/JjrcbXJAeAg3v2RvNNyEYxKIT+Dx7pUI68FaITZBOMxkMO89oLB9oo93Xi/ejzQv5GmSdXd49deDxdXzDZfe6QbNhov3vEfi+mqX93LrMGoUCARKqg0nGD5RU/hEHSHUZilcaXjn7M8j5PPXIzHCSO89X/Jan5Znf2dCGePCO56TApZ891KC4DCTZR/q/X5Kos6SAX5k3O3fEoZj4itrKMSXUiKvRBF6nby+hpe/TFwPVIbnGSlNMt7LSYA+5NskvEPOfAQzjCoFUpvDMILi4zTakbp8a6hiPq9sNa9qlUNiUiFsFJ+E7cz2a+m8iXZSN0xlVP9lOm/Y2jUuBAHgXbIXcwF2IUPQSePXGoxY0IBh1kUom9EHbWD4HgTSW4+d2GHo1ojFxQLMngIPXgbP3NdwYvk39kHqCoh4cPU8pOXnwcvypVbSeV5P42XwDN7DBZYfkwqDPMl85PFnh2F4DWPFJJcy3euXtwFxWD0Oy9ohsdTu9XFcknUFB4/nPjkBbnBsiPziJXjLEyv4pMVVTwerj8+/xTQGz2R9vMwaHgm+IC0/AjxB8HrYwxH6M8RZR6iAX1+wmNOB+hXo2/es04I5U9VYLqpcKogNZWx1z5dS2vbIXTr1E1cqbf5NU9HOuyEZqlXPG48X3FcU7eikx/U4GBKG4JmdqVyTP2N0/zg1p39xOhDxgm0GQnj8kBZbstmshJDcf//9dpaD7fHuvQs8XOA5v8I926FdKBwnrsakMZM7Pl4PS0cd8DGaUBAuNCgPv0d5sJmKzU4EjsezPd0DW7DxjOab3TgVbNv7Y5eNOFjiKMBFF11Uw9PzcmV7PDt4OS/DRir3pQoNXlQPfL+y59idGic2fFFf8tIGBAQuKZTAgk7gw/Z86mB1TLS708LKTfpijWEhvMRZ+5GP9sSyijfqJesFbEsbv4Q+ns59qbr5XMMz5jPyJuuYbF/8o/pzsrzDeT+6FEjckEZABCaMtjGPaw502Rl4RG0Sx9fYIxIdWcMn6lRVUhIeUSEWcRHRIonzBvKe8UCNA5NYr1AbFw2lBk6t9x4m3lNyuAoHRf/3c//XmJpTtzfccIPlZd0eweJcjePFlmp8qXK8GwWSZFTS1HDyAuIr7/ezbmKckvm9h3O8OSeCpy1O9MLYKIyaL9VqxeI4h8LZFeI578GZEbZ/41OEsx0IDztHL7744poQOWpdO7vsMBn1oUwv1+MdH3uO/Z1yX982I7WBw/Erh+HsGHysUJLludBDw6SF53m5Gm3rrC7yOd29jerTJcuph+1WlZWTaJPh6JHE5Ujdjy4FAhVdiQRplZkgxRwt9aq/EKpclR7b0KvtfSUNhk2qBo3qzpd1zRN9ylX7NaahorNPnLqfAiE/PSOCQW/FwTQOo3G6loNWnJykJ6anhWE41IaHK7Yuc8oUi+KEE09QT0+vdnZ12eEqHMcg7BzKY2s0SoOTnmxbxo0dgnrrLbfaYTk8irkvVTye4Ynqb/7mb6wsnAhxKI0DW5xpcOGHiZ0OCBP441iHjW5ssacscIVZsRg4lo8guZd14MCwHKjjvAeH1DgpyvZsDqNxPoOA+8Y7br9DV155peEAzHpfqsACDkoFT18oEXypQjMOibkJj6WTSWfs1CkH/zgNzCG3pC9VBN7rwYE8rDHgo9CgM8qUQ3DQg8OHKDhOBZ+y5BQ1NTYZrTj4RttRXxQcV/AGDocLcUrkvmN5h8/RLfFJXk70kh/6IfjQCL7gkBtKrN6XqhEpVnAcooTOHN7jeD7tQNl0CvAMipW60kacuuba0Nigiy68yNKDFz5fqCenp6ENeLB9/kiGUaVAaHBTGWGgUiqlcqQ/1IdPVEyPUPr5rx7VGYtPULUyqN6eXh3bUdXmtctVDVN6bPkKveazf6j6KVdO3XKUGt8PmNg0IExOo3LyFiH8xCc+YYfm6KFRCjAaigLhxd0cvik4wv76C1+vVStX2ZF5GBlYDEE48v2e97xH+MJEKfEej2MoBoSPXhvL4/rrrzehQJmRh1O9nBaNR0ImDBABgSSQj+P5KBqECouG8xsIH3X5yU9+YsyKouD0LU6LOPz30EMPmeAjjCgqBIYhCULiATgcbSfkB/NmaXz1q181RYuAc1KVNkEhco+QwPBYJdCNI+rEE1yIwYOhBbTj5CnxOCnGc9g111xjeEETcEKRcSoZ1wQoD95DC07VoqgYLvGeISD1RdhRAqTDuxsew/CNcsmbLzEYuEOk3ThtjDJDGW3csGFEH6YcdnPLCncFKLLf/4M/MJ8vVqn4D+3LMX2GpLTvnXfdKdwtjBs/Tu5LFWVKR3PdtdeZ3xdou37depuLwbqEFv/0T/+ks886W1hqlAU8TmQfyTCqFIgR0s6KpG2I8vALobqKoXrzoe58LFSlJJUzbZo6pVPtTYEWTg903Y1d+uAl51r6let32and+gahp0CAYEKOntMLIsgIC7097v74lEFjQ6NZJV/60peMSRmK0GsgHDQ2CufNb3qzPviBD5prQoQIp7y8/4d/+Afrxa666ipTEByV50QmCghfqrbDNYgc4NBj0QNxBJ+AXw8YzkPS1Ed4USDu3MaVE8KMNQNz4pqPwOG/Cy+80ISI+uGljKPm4InwUVfy7dm7R+5LlQNl1A8lS4/vwwksNQR1xswZpgwpw+Yk8DLW3m5KhXz7meySzbEw14MiQ+kx35L0peo+YX91223mIxalSt05Ku++VOntUUR4vUcB4auU4/44XaLt8KeB4JEPX6rQiPd0AliSWEy0HTBReNQZKxDlgtIh/9IzlwqLECsGp0oELKw1q1fXHBPxDppRB5Qv6WjrRx+LfammM0ZfvOOjTGkbrFD4ikAH4b5U4UEswPd/4P1mAZtP19iXqiU+Qn9GlQKBIT0wl/HzW+/TrPnzNXNSVirsVVgJNXPqOD21ZpMeePAhfeGT79RAGZ+oBRWUU55z/h7oGWNwMCF+GvCFQY8OU9Hz8x4TGUbMZXNat35dbA1E7unoweg1wYu0+DFFeGBIGAInPkyawcAwJ2HX7l1m0sJMlMXPlo1sTicad3s9geP3wCcwyUkPSkDJnLJkiQkgvlRRYgyrGD7QQ1MGgo4lAhzKore0MgEQD8nwN8IPYcBs7+/rNwuByUd6YeiCsqj3pYqCYrgC4zuegHVcEUTK5tl9qTK0oywsH4QKK4IyUcQozm9/+9v27NYfChYaupWGAsO3KrTn/b7ufWbxMFykXtlcziws8MAVIrQFFu1LG1CG+1KlXagz9MIqg96kY8hZLBSt7rz7zne+YziBM5YBns28jqTFmkIBcQ8clAnx0MTaPYjcKdBeeCBL+lLFDwnpSE/bNTYN4QFdnZ7EQycv1+ld/2wZDuHPqFIgTpdoejBQrrlZV5zbqUef26k5x44z9x7PbxqnmTMDrVi1Vo8/V1JfKfaJyjJeiY9wxyGhjGgEhI8GgkEZnzIeZ/xOQ/EMo2Fmc2X4QDru+ZGfn/tFJQ/Mi9nrYw9g8B7rgbz8mGth2GGB/W6plAmWT7zRo7P0x9ffiCPApC6UCDbjanpzrCKUA0OOcqWsY2YfY8yM5YASACbOj+ipwQV8U0HkPT5CICqfclAcfEqAXh4LBO9srmQonzRYDQwzqBNxVj+jTGC0Q5BQdswLEFAA9L4oIuoOPoP5wRr9SAMMho4ILbRhzoZ00BtLiXIpj2D+T4mJaYaiYciAH1dvD9JxD1yUC3mB4T/ieGewWOJOBUZ/88Eal4PCQWmQlmEbwxCC48E9sIkHrpfHlR8dCZYrsBlCMsxFEbnCol7AIq3zAs8oD3jrSIfRp0Bo6FgN9PUNqDsfqrMlq10v7FIhyKk4kNaWzc0KSr3K92zTsbOnK1/FnwdfpBueXM4MXGECY9pYeGF23hEwf93iIA0TZM40fiUd9/j/5Gr3iaU/mAILB8aB6fkh9DwzDqZHdh8RKA9wsvrGeziYpGNY5IFJNxzh/Mmf/Im9QqgffuhhLThugcF67/veK/yvEpgfQZBRAvS+LsgIOsMT5hcwq+ndCcDGSqAOxMP4DPMITCyyHNvW3mZWF5OizIMgrAgcQzUUHB7dPKDgCAiolc2H0ONA/SmfYRUBuqBMoBU0wP4iDwHaQkenM+/5Qa9UnMbaMm5PrAAsMurjLgOxLOn9eYfwkh7lzqcsUKy0L5YnSteHgChDbxvSE5gIZZjDXAxWFpOy8AWrUIZPrPSAzZCVcn2YxtwNc1GGa1ynZAfjZXBN3lvB8R9/zyP1ICTfxclGvAy1wIhJ/vdFxNa+BgfzCkvS9PFjVM1I+ER9YlWv5s4OFBT7deGZs/jSgwrF0A7TpaulYXyQReYlDQtj0wj0OpjxNASMSs+BYLBaQW+Lp3PGz+4HFArTCyGUMDX5YEzgcI9FgBkNDBiOib5rrr1GF7/hYpu05KNRCCoCdvnll1vvBExnBGDlBwdrDEIPDV4IDcqAORAEmp6U90yE0sMxofv1r33dFB+WCPMcKB/qgbDjWxTholyYHxz4vgsKiXqwPIvJTRoUC5OQuPGjfOZNMNsREkx6JhvxEQqulAsscKHO0BQHOdxDZw/QjGfi6d35qBaWD8MI6sNEKMIJXVEwHqC7CzKnroEBjQnQCRwI3gYMKxmmfPnLX7Z6Uj8+AoXFQlugXJzW5Ac+CoT9LFdffbXVGVzJ95GPfMSsIz6KhaJFyWCNMYSERuCJ9UBdwcn5CnxQXihE8KCjIA7rENjkoZ41PPL5Gn+heIhjmAautIFPrqKEGPqAB8Hz28NB/Bl9PlFtJSbQQCD9/J61WnrasaqWy8pXQhWqKXXtrShfzGr58ue1Z3uPnnl2q9as7tK61Vu0csWjetdbzov9iKCGol6Eu0b8WM6dW+vl3K8obYCgzp03zwQUpvaZfoQEBmC5jYAJSi+K8BEQVBsDh5HXb4SBXg/Bgrkxh5lQhPFgEuAwJKkPpGfugDG0BYY7aRwnpQwnhhxYFzAk43vG4ASsFZTi0089ZYxF745VgHBgSWA1oCSYqGQCkDqTB6aEYcH3rW99q+WlruCOhYOA4TQaoSeAF8qL1RUE6APv/4CVQZwPw4yxg6BGZ3BAcZAPmjGEPOHEE/XwQw+ZkFAHd/bs9YeWwOGZZVLKZTgLLNoHpQlMcPA9M1xZAYEurHzRdggcCgRYpE+2G8+UQz7ogaCjOBByJmkR4mKpqCefeNLmXhiSofBYeQI2dcGiQ0GPnzBhv/oCCxyZM6EcfKnyTPvBM+Dh2wUcD+oJXKxUYDO0pt3mzZ9nw2NWCCkbPIzeiaE5eLgFB6ubLRtbM9TdfqPOJ2rI7s60dqekD376Bn36ry9RI0zFJrGUtKMb13jS175yrc46cYZNotlYPxzQuOaq3vGW81+kQIzy8R8aDsISkvc8o/3ZSwAjEEcvyRLkmUvPrOUZLp8BG+EPE4GYrR7o3RGIgw31OJLPYdILovySgfQE5neS5ZKHkHzHMzCcHq4YLWFcDkoMgU6WQx7Sej5Pn7zW4+04J9MAt77MZHw9jPpnT8t7fklYB4PjcG0xHJ5MVPMVwbbWNht20TkwhHOrADwon3Agmji+L/daX3+GUigWKzNWINDA24b3B89pLxerX7d8Ph6WtHv7Vl133XPKBXkzJthYFqZblEo1aGD7Gv35py5/EfaISWR7REqCBBCeHsa1NczFO+8lPY73mO6sbkD88y+4wL69Slp+MBwwCNwT6mHwDnOVRnRFQVqH4fktc/yHcgkupKQlgAM/4hE2f+fpKAPcPRjDuHIKo2GXx5GH9I5L8j35vH5ejqcnrj4fz7yvD+QFV+pNvD9TZxQXcfw8jsljAjjxzutFGnpUV3bU0WESB648kw9c+KEwmcNxGFhGwEQhsC3e6c6z+2IlLTC8zqQHLvAph3jeYa0tX8b3l6NJU1amXHnQ1sAmHfHgwD0/8AJOrew6v7yOB+XbruLE+SzKrscDmIcaRpVLQwgWBJAypQF2St74rHr6Cwo4n2KKgfMTgVJhRdOa83rnG1+jVFBR1YYUATvfzUtZdIrGBzCRAgE2DUrg3p/93hu9voFggGQ+v08yncP0OJiUQO8NXH/GxPQ0yXKANdx7T+M48lyPp+NhVEv4byWPrTLF/mJdGP29w06+r5UT+wFNMmwyn+dxGH71/F6X4Z7BiZCkBXVI1iv5DAwPpEnCrE/nsEnvOCbT877+GRjQjlCPE++8LpYg8Yd8xNG2lAVc8EvCo/15T7r6cuufHd5w7502xHHv4WAskFGnQMz/B180iz2zO7GGvSKoAUqFEPkKwQkR7DBE5mFz1l4mG4V77+E8gfdCyYbzOK7J/PXveR4pXzLt0ftfTwp426IkRvKl6mn8eiRrUl/GwSiQUTeEoRdgcxAj+3KxFGkC/BWiea2jGLIisjk8pw4pC1fOB6s8hmtsM31j9eM9Eg13NIxeChgfHEFfqkeSsqNIgWCeQUr+8AuVzkbWBALMRCnBhNlM2eg5+hs3QVLO94uI44e5JC0E7uu3ZpMlmaYexEhxI72vz3/0+deXAt6GIw1jwNzT+PVI1ubllDGKFAikZzQaKwquvnrBnAXPKIgU386NnOvYGN+Mk8gqOZKNdxT2UQr8JlJg1CgQVxzeSG5ABMyMVllpQEnwQ4tEZyBIi0/UwHyiuvnhQx2H9PKuPmzxiTkfziShkcaso8TkbLKXIC75nMz7cu7rJ+gcNuU4nsB1XL384SZxPc7x4JnfgXpbT/tKr8OVNRw+Vhcflx5CofWwDiHriEnrYSafk/cjAvgfihg1CgT6okRQHK48TE8EaQV1ex2sLeJEbnuYALF8xr8agKFWO5RGJq39TFlFMPxdvdC6Ryp/P1Ti4b2rx8dn7b1cwyP24JUsmXQegOH5/F3ySvzR8GIKvBp0oQxvyxdj8PLfjBoFkpR52DgwZg7UK+mxjaEGiwWlwgFV7XSrlFeDipVQ07KDOndBp1JhWSHKhiWzmN4O0wWHBooGQ9E6vTdYUqhI640ZKSOHEm26YlWGgMKypULXYAdo46QFQJlerr23yg4tOwLGcXBc3SrwpUkvypUD8Ni/MFJI5nNc6tMCw/ceUDfq7uWS1mgY+2X1dORxHEjDs9MuCSOZBpik4+fBYLsTpcQSrMFg74/1JBH8JE5elySuXv5+sOP6OH4Ow/Oz3OqB/PzoxZxu9s5xiJfFPQ9x1M/rxLPDt7h42Rr4vqzv6ZM0ctxI91L3xB9sGJkrDhbCb1A6yII8RTJFzxn5Bfn+A5u0YP50ZatSucBGJHyi5jRYCnTzg7/SmQveoSwfqGaDUS3//hX3jUHRVEr8pbvEvgJPTaN6Q8MAeBRjIxFb3PHm5cGZi92qCxcurG0m8njyEmBSrAOYyhWCx1lFwRd/pgn/mOBAQDBIyw+m4ZSuH87iDAtbrIljZyRnN7Zt32Z52Nrt52XIh4MktkuDJ1uwHZ4VEv9hKzVbwdkCz0qUMzn5qQO4ePC9McCxdG752MiSWkZ1J440ljV6ZSDYks+Webb1c5qV+hpOcX3xlUq5RpcYluPMe4LBjRjF7h1fx9GvTkvDqjqEBOlZmvUvEQLPYMbV9DaxssAhzko7EWfLhHQksYWXhG9w4k7G8TB4qagd68vyNEfiOqoUiBPQ2pAGo+dIpzS2Rbr41LQaNU6cCEC8CnHif3p6Kt/dNnHLKhCzJRAtOt8ZcQNMB6MOF4hzq4J4VwzsMLzxphv16CORNy8OpH3wgx+0A1MO55tXX62HHnzQfJqyM9GZ2+Nr8IY6OIuC6VAoyXKd6bi6AkvC4bAcyoxTrJyX4BlHNhw647wLjmtQcFgiCDhlcH344Ydtez5bnjn9ypkUTtkSKMtxpn4c+uMsiIXUkHAgPC5oUeRQ3gNZPsOebKTceLeu19lonqARCgsaDAc7ibP39OCUVHKehqu3p+PtV/Im8zsdPD55fdHKXCqqv8EfbngdK5b9yo7zADfZ7slykjgczH0y70j3o06BxB2AFKRNGaAswmKveSVDOTz0fJ929pY1WEEhZLVvsKgfPNqtbGVAHU3S+YumvugsDAKH16++/n4VCwU7RMUBMw5l0RuyIYeTlwgXvTxXDj7dcvMtNeWAgOLBiuPzu3buMgfEHJDjYBYMQYMjtN77uhIAHr5XeY87Ow6wwbgwPL4z9+7Za4eocHDkATg4YuaELxYDv4HBAXNgxEExAu7xOATGcXQspCuuuKLmWcvhoGwoA8VHfTnVi7Obv/u7vxtSCHSmqbQpWA6YYRlwrJ1DX7hsBBfqh6X15IoVymWzVhaHxLB8cCoEfdkSzqldlBTKlAN7uBbAQxoevVB4HJtHyTU3NdmpWRQEdOPEMW4UUNrUddGiRVYFaEegfagL7zk0R8CyuP6667Vn717NOeYYcxBlEbFi5B7Y5EPxgh/lc1Bw0eJF5qiIQ28cSOPQHiduub/xxhutzhwu5LQu29BJByzw4AQ2eHDQEAVCu1x7zbWmrIEPLU5eeLLRlLJxOQmuuLd05Qw82oz61Vu2XoeRrq4cR4qvfz/qFIh1T4FU5DMNjEM5tl1pEo5OOX1y/Z3LdPYZi9RU7lPvvm4dO66kvVufUbma008ffFznLPpwPQ3NXSGewjkBitkPIyDEMDz3HOnmuDsMzZF2hJRTq5yORHhgPkx7/KXiOxRGp3fHBR95adRa4Nb2wkWesm668SbzUkb8po2b9NGPftQO66EgHnrwITutidAikKefcbp1z/gIReEB1xUaVoP7/QAWR9jx3AVjc9oXP6J+TB1XiShAmB3LAyXHeRKUFwoFpclRdxsiodrioQjKgBO5+L7ALSAwYHoUCkJIWXgWoxxOruJ9zenaObnTlATOiRhe4fsExcG1kC/o/2/vzoM1q6pDga97b8/dQKPdKINMDYgkCEacoj4j8lBQnOqVotZ7hcZoUg4vWs/kpfKPRqOmeKlKookxlhUVY4JGBYcY4xQDaJwFVBAFGWSWpue+fcdXv3XOur3766+b280Qkuvu/u45Zw9rr732Wmuvvc/e69x8y80piNwGKvenf/qn8cdvf3ssXbokLvjQBakMKRwnUVmL2vuFL3why4vn/IgrAu4APHPZSDGj27e++c05+pXizjbNzsTHP/7xpI1pHeXmrArY7vnJLYXFAuOuQDqlof0UoWP1hQcY8HDg8u3veHusXbM2PvbRj+0CnzIEf2JmIl0gUPLoeOUVV2a7KB7l+VTRh6aV92dYeArEBGV2NMZHIi792UzcMR6xZftUfOHrszE9NRuTI8viIE55lo/GaU99WFz0mVvjvOc8OcYj4oc/ud2XWnYLPtLt6PZ5Lz8vHv6wh+doSjBPe9xpOYpyDlO+TwkcpiLABKbMXLteCQ5lQrlQHpiOMqlQeeuZf47xHePpX0ScU53KcxFAUf31X/91ZoXLRz7ykRzZNm7amMz7znfzHsT2AAAgAElEQVS+M+vnGyIV1sx0eorH+BgabELMkiH4RjRrGNphFORHlJ8TVgIlaAqiPZQkJt/FvO5HbTD5diUoLBXrLdwR8AXy/Oc/P31uQPg1r3lNtoEnrqTreeelfxBTKcLHSuBgmiKksMqfK+9n1lrUTZFzHHTbrbdlPfKgvWkUf6YcWTsVzR0AX6cCp0poh4aswfI92tKPQqlw5x13Js15CQNbO6wF6Sf54M5DPproSwPM2WefncWtKaEry4QioQR+7/d+L9Mcprv1llvznoL4sz/7s4TP2gAH/KuuvioVpjSBMmUBUi4UB2WOjvsa9OG+hAWoQLpFN9bGRV+8JNY98qQ45tBlsWJkY0yNzcS6o9bGz26+M/71374a73rrubF9eixu2TIRE7E4Jie2d+t15vY5aegsA6NR+pqIkWQ+90ZZXt0JHuvDdETHsixWrFyRC2zK1dqhkc0z5nCVL+fdTYcSdkynk1ksnBMRAg5mTIv4v8jR6Mor0wogAOAZ9cqpzHXXXpdKjhLA2BzlCOqTl1lMCCk5J4c5PmJJcf5DsSn3u7/7u8ExcTkgqvfa8ErcZ6ZzikFhgElIxJejYgLKhKdotm3fnqeTjZp8koCBZgTFdIQ1IC7pMT2dyodPEjA4kzbFAnvDxo0piNpU7VHOiM7ik0d9/M6yyLST6c8CApsS5VeDdUIxsqIoHfizrozo3DFQFPpFf6GpqRjYaGzqwSISxHEAxEpjdaGdcqwQ0zbKuBbNp6an49THdN7Y4CEeHi18uBd8sO+4/Y6kExwpcPhSXtoFXrqe7BenteH+CgtPgfQCae1j+QEHxAv+29r4zlXrY91xq3M+c83PDo6jjhqJ7/1gTXznB9tjy8RsjE+PxfSsszM7St536w+M5ecNg84zyhJEDERxsC4IFEbCfIcdflgyWb0ixFRGrepscHw6gEAQBOnWLDCoPOBgftMJTESgWBlGcnkJt9GUcFAyL37xixO+Z7BZDCVsGoMJBTD9KCtess4///ycq0sjJBibQsGwBJnCqgBPwsYi03YKSNyjT3l0tkVezK9+AmHdxnhHwFgyFAecrA2UQx/15ajfD4wUJVzBmJ6aSoVWb0LQIOH3igxe2oseKlLOr2gsfSX8c29g50ku6TMykjhRPp7hfe6552b/KlNvjMo6BM9P3fWTT7/zpIYGlAGLUD5toIi1X35h1cqOjp4pAWFqcirrVx5dtMOvyshj7Ue7WTv6vvpU3fBU9v4MC0qBIDzLwdqHbtu8eTw27piNQ1aOxp03rU/P65PbI26+aWUurG7ZeFscfdQRsWOW0xuc0+0B6Tolu2eub8D2Yz6PLR1LBWJKoSONtjqeULISBExJGeh8isfc3MiDuQRw1FOM6cpLu18FfkaVfetb35pRpiWUBoWhzre85S2VNU1tdYo3uq9YviLTjKyUGzwJC4tDINDiKA0LlhYr4Ya54VofmSIId/3iF/mtE0KiblYDj2N+FVgsxfhJI0ogRlI5wIuFw6ISyvcqvNoy0tpnFghFkvCatx7yFN1qTYpSM/0xJdDOorODlRQ6GIQPzeFjABhGPziALbA+rFupD2xrOdIqPfPyszo6GpdfcXkqfdMT4YILLshr9nE/QJSCKyXAU5g1FkFcwVeft2Pqf9Ob3pTpFlt9J0a7nOvCb2D7Fc0yY7/4W/f39rqgFEgRi9KnRLZu3Z672I9Ye1B+vnLHSMSV12yNE44ZjZkdW+PMJx+TPlEnJrr39GP2cBSQ5oohWQfc/wk6DAOyDDCMTiXoOjWnOiMjaW4zp32pzRzY/J5bQIxSHW4053yonpnAvmgnGNmM2B/4wAdyMZYiYvlYmDVqsw7KPyjGI9TWGwgU68UCn7cDplr/7WlPS0H0LRd48xN60403zvlXpWRYTz4Z4A2RhTpwCIb9INYV1E0x8cmqfjTR3sTVpxQan6/iKCIKgnXBByprh0AY9dVnrQTzs3TK1ywfoaYXFdJ/6ebOf2n5NlWvkT19yM7MxNpDDklrBi1YNWjBFaA+2bJ5S1pC4KGxutBRvqIfunmrgVbox+rwxsi0TJsrn7dQpfDAks+Up8Lxxx0fX/3Xr6YVor8pWzioTzlv7AoP5dCLsqdE4G4arL+1T7DW4bs4/OvqCziZIhoAKH+KH/3u77CgfKImQZOmI7F9JOKiS66NJz322JidmokdU7MxMT0Sd6yfjPHJxfH9714bG27fHD/84c1xzTW3xXXX3BJXXf7teOlznxaLUk9Yv9jZQYTmhOOPz5FIPUZvwkFJSDNC8XGK4aQbbSwGGplZDRbXrGsIbceDgSlyVMoqu+mH0Zu/S3mti2DCZz/72cnUBBsswuINCsG0QAgP8DCj/RsExuvdZ5x+ejKrqYTRH6MSEK9Z1WudBINSckxlC6g1WsKtfLJWmVJ4rAM/I7xgZKfg4CwPZaoNRz7iyDnfq3D3IS50QmZCZkEQ/Tyn79njj8/6CwaB1xNwKt+m2nncceviwAMOyCkZf6sE0/So1mQoOGUphwoEloCjnzdoFo3hXPQjnOL5FFWH16QUpwGC8pUf3bRxxcqVcdy6dXm/Zu2adLRtkdq06SXnnpv4srq0GR1qvQcu8GBllA9dfSMdr9ggp24+YPUXZekV76AP2GoXXNpftfWerr/0iTqMQrNGqNFYPzISL//jz8Zb/+/ZsazfFka333b3bExORbzvry6KJ57UMSbiL5kdj9XLZuOlz39qjA1RIMOq2lsc5jd3ZzpXMLpgJvUNBvnFt1f38rehRn1xg2nipA/GizNqt7jIa3Qsi6jFqa3DfSq3HgltIMgVCt96HrxKV6aFIc8wPNuy9wS38g6Do11wbNtU+V1ZehT0IJ0G6yS4duEaLKSZslLI5fG8hTkMjzbd/W7wN2yIr3z5y3EA+DMzufj79NM7N5hwHOyvwToKnvhqa10H6x72TFFSjFnmlz5RexL1C2Zm4HfdfFN8+uKrYyws6FloG43Z0ZUxOrIkNt3843jTEJ+oqTt2l+9u8bD5kLFOS0ZdNJYd7V6H5kjaKwNDai3E6aRhQsSUZTlUKAaoq/LuwTatMdp7xmDqLOaxaDqX5pMB/R4PQpKWgl22jf9T9ZUioOimJzvTGWxlpBWDVhsqvnBtr/CgKKr9YNp+rc3KVd3ygV3wxStTbWyfwSs84QKPopX2FeyifcGoV8670KBfAIaLX/VfS78SWOXkcbVQbFoFNsuA8oCLX9te6dVG94I8cJRPHJjiEv7YaC4Slw9daSybX39S961bCk65akPSYVGnuIsuyghgV50ZcR/+WVAuDTu6TedW9e0xFhd86srYvH0iR99cic+ReCQWjczGw5eNx7lnPTHGRmZi2pF+VspsxCLCPESBYLTqMPVghLIw3FfQkZ7rKo9Qwl35XAtGTQGGMQFFUaHNV3XCC76VVnmr3nakrfqytQ3TVXyVLVzn6thLG6qMvH4lJFVWm/zgyQry33Obr6Xr4Mjb0p3gtHmLXuqq9hYdqs7K0z67L3wTp4H+GcSh2ugKhznFO8AT1VdF35YeyhYu2Wd7sCALftEv24W9Bg/nDbFOWzzncz8fC2QBKpBOYH0iqvN/vhdSEk7Cj6GY1dmpbJfuLc4QPTIUmM4u5hiaYS+RxShVfhDW4HOBqvi6Vvx9eb0vYA/C8DwYqu2D8Xt7HoS7t7z3Jo1AF87wpMD2B99BHApmC18eyqlVkoPlPN9XbZ+PAlmAb2HyRW4sjpmYmvR5hM4U7zqMsmBGduahhaq2M/ZVcQzr3HsTV0x1b2A82MuW8D0Y29ryQtEx8e1HkrLMKu3eXMHN+ixEz/YVWIfo41vYRbM27oG6X6AKZDStCCdxdU2alKOdlUF56K/R0c4+qc7p8u3slr5Ld0bs5a5g7CXLHpMGy97TcwGqfHWt+PvyWrCHCdZ86ykYbf57A6/gDINbaffl9Z6sgf2pS/sr5JRrX5itmQoVjPvzuuAUSDdd7JRF5xPVqmp9uqGbS9L45r460m+OSbrC92d/7BX2AyUUe0XiAUh8sLbzgcbrga5vf7p2wSkQqxelB6xRpyqZmey2dFgdt8PMdjELg+lcmbOK/i2Izz/0vl/uy861aAbeIMwaidvFtzll1vT2nso3We6T2xoZa0GyFmALb+mVpsLWpG/T2vgWMXn8tNG14LZ57sv7B5Jue2rLsHbuKa+2D8s/LG6+dLo3ZdWx6yaC+db6nz5ft6W9szTGIsaWRYwuixhZGjG2xDZPr1sixhbHiGsGageDd4uwjZWZnbo/JNF5Ql2HwcgV+S5b5svnJqOy4gpGXQtu+9wUy9tKG4RZ+Sq9fW4VhPQ2T973uFYZV/FzddgF3HsIa/PU/W7wKqG5DuYp2BVf16bI0NtBQZ1vuaHA9jGyrau9ny+Y/SkzX9j7km8BWiC54hH5ncoYTZ+ol107HeM7tsbYzPaYtbdgdiR2TC8Nu8YPXbI5nn7K4V3+WXsmum/J5OJJT2kCMRrd6ruO9Vx7BjB3y6glgDV6A9G+9mMfVdnqyEr3zBpRB5hZV7ORa09MJT5/vVvp1oqptBLCShOfcf38G07qzDl5IdYrB3mFKtsk523So9lcJnKQLuLAr7YWnYqu0hMnClx17WtLu3h6Jap8tWnwFWxZckXftl8Kp+rXyiO+yrkX2rSsNxHa1eLqs+ZFPZVPvwvi5trjeXbnq+tqu3yttQaGkO3DJyO7btiTXn1QbduljmZzXBvf0jgr2Ic/C06BzK1HJc93W9o//s3r4+QTj4nFMzMxOTmRU5ZtM6tiYmo0/uXLX4ynnPqiWOTNzEzEon7hdZDGOkTIzm18kNZaCkZIBugRqHhxdjAedfRRccjaQxJGMQIm8OP3woYiR+z5lKi6ZCYwzlXYHHXUkUdl/gTSMmkvXDaMJX6NAkohy2Ugb6A6/NWZTFzEYjX0zGk7Ox8c8jzlKU/J8yFgenbIjhOeif7j387JOCNC4GzB5uRIeMlLXpKnhd1XWVfb8flJ+bXH/lpuYbfRbGZ0JgVFOhzUw28omS2cclqJ/j3+8pYiILBehWp75Sv/sF/7+tdi9UGrsw1gCfJXXYQx7/k2tSkLiLZvKeZeKctH0egPOLZBml+Wp+z6j3FnfO/PNtvVDz5ZtleSqXxHOqVY7S14SYe+IvkqXr7alFjtKtp4Lvy0BV2qjhbn+d4vOAWS05Ds9G4D1miMxUNWjsaZjxmNZbE694ZIKTc+b/v+YUlLlsei0c5rWUe0voebEUkHYrQaBTzXaJX3A6MwxiZsvF854MUZURsw5GWXXpYeqZzPoEiciWjPzHhXz2uXY/2tRzFw1CnUqN7CzvQh1o4yfq2FVOWcnXH61BXuDtFxZ+g8CVz/6Z/+Kc+COAQmaBtmdSDQ6VMHvByi40zoJS99SSxfxgPtzmBH54UXXpjuH5NuzQQ7mXyQfv0muqJxQRpsb/VHpbtqI4dFtTMWnm2+sjrEyzMXGt+jiVNzFEGeVCKNZSBuEPfCF+wS9ILfWhUV5zosr3jtmMOjp1e1Q9ogLUqh7AleW+d87hegAkmqE6uYjLHcHDY7uSU2jc+GQ7ffu3p93L5pMrZNL4nZWBKbtu2ID/zbbbE0tsfqZRFnPv6YdKo8Z0dHhJHMaUuHnQiLI+O2HTsIZlR2noCzGgexPvzhD+f2Y4fsWBM6+KEPeWgywt/93d+l/5DnPOc5ebiNqz4+NF/xilfkSM7lHq9XRnVMwi0e68V+FXW0DNU9dMrDkXuwbXt2sM5RfAEjw/173/1ebgF/2ctelgoKk4Gvbk5qHOziVQ1DsoIc8BIogq985St5FH9ivFO55SErM/R/uB1wQK/cDnC7yMkPBzmYv/Y5ECbKhwcwLhSddnXI0PZ0uKKfdlBeyqOf4DAhpUaZOotiyzh6oL0DYfrCQT6KmmvEZ5/97FQKDvOhHWECk99U+R3I++9nnJGwnQ7m/Af+TgnDj0vFwkkdTsVSMs993nN3GwQAgbvDiH5cNnB5oB/U7TAcpQrnc845J68f+tCHsq+k80Vr8MBXDuI5EOgEdeGBx0xBOElyYLDg6zP8qF14hnJ2KPHMM8/MdvEjgl4sQ7BYk+ivj9FjvmFBncZN4nDpH6Mx4bwD36gR8S8/3BInn3JwzC6O+ODHvhGPOu6YWD46HbPb1sfy6fVx4KLtsW1iMj75L1+N551xWnQeO3ZaIBgPwxqJ+fzg2Me5CJ1LyBy20plc6Zlu6FTMRECcmCQsjssbsTErgXMCltMdyshUgKLh9vBLX/xSCg5LRD6erDDYMkrq2GOz3+eYYCRicmIyBceRdIFwEhx1E7xPXfypjFe/aZKj+oTh0ksuTR8WcFBW/Y6QcwVQgUCxKvjdNP3g1/Tyyy/vfG7MTM/l/fZ3vp2na9cdty6d5DixSmjAq0DICClXjOiG4bn9I0THrjs2aYF+hKfoh/H9uPpDQzgSIO79TKUIOXpL27ptazo6/sa/fyOPzhOwD37wg4k35f6JT3wi/Z6o+9vf+lYqHCeC0YX7Q8ftCS93j05VK+8UMpzQyNSOAFOKpcyrbfy+cJotUIIcCxlATH/4HNGXfo7ly4cHCLO+J8xOT8PjzW9+8xwePLhpOzwoFm4dWviU69pD1qaV6MS3QMlQXkc84oj46U9+Gu94xzvyGQ86cVyWSymQ+ZzGXXgWCLnnESsivnrNTNy+I2LTton458umY3JiKiZGl8WiRWOx9sAD49ef9JC46DM3xf98zhMy/7d+dGM6Xs7eaObZtLdOevwTHp+epozWRm4dgZmM2oQQ83P6I3DS4yQnhicQ8nIVKPCFIT+mIpg+ZpWeraIzpykaDFaWxDe/8c08+q0sOASpwqbtm1Og+CYRMDBFAQbB47+DBzLBkXUjLmX3uX/+XPoKpZyMUim4DuhNTuUozdENZfSHf/iHWSelQFiVJWgX/sOFccCqA+KkXzkpbrrxphQCaxBwg/vmLVvmGDYr7/844UqJsYYIPj+fnChdfVVHvz/5kz/JnJf82yVJPy4RKGhuBX7nd34n0yhxzM9yE171qlfFMUcfEy8/7+UJj5sDrhAdl3e0Hr6UDv+lBgFWGfx/9eSTU5lRKtZtuDIwbTNyP/kpT84ppekkT2CCfkOTstDE6Vuw8Yh8lCRBptw4OUIvzpQoD21nXXJnINx2+23xN+/9m7RG4ECxO7JPmcFDXQYqlih8XvD8F+wC/5abb0kLsXzj6kOKxhcCwFI3P6ylONRZyiMRmMefBaVAkjj5GnY0HNj+7FcviRMf/eg44REr48BlW2Nm6WycuO7QuGPD5vjwP345jnvLi2PL9EjcumVHeiub2jFZa3MoPUdeGpxQlg9UjmeMzoTPdGD5iuXJ0Nz88RZOiAgywTR6sRiY6nmycnQkBYiJaXQRsiZrcH2drsrUfLZlAEznMwACc/03fuPpKYAcCBFczG10IjQY1jQFg4NZbgjhAbYf/Gqk9wx3QiHeaEsYMT/h4sS3nAZbK6Ggfv/YzmHxzoYkl5q8p/lO2NVNifGJQYCN/BQcQTFiah+FwCrhld0z/NEIHtYdCINpgDbyCUpIxOsTVhNFI50yLgvB9Ake4FImFBGL6lGPOikXeTdv2pR0hhtLCF2005SQZYdehFLfa4P+ZCmgMVqJA4+gn3feeXlPcYBX/ccaFNBUe7mL/Mu//Mtsv2kZnLRXfgNRiwce0v6C7x581it4+tdP34MhDl9yrA0eerME0aMddBKhef5ZUAokaZLObew8HYmlq1bGs59wcHz76uk4+ugD84tRP7vpwDj88JH4+nfWxDeu3B6bd8zE+EznE3VmqlEgDYEJkB9G5AOV4tC5OpYw1KtPHYWJdTSlY75uJMD0OhfDYUydDoY85u4VdHpaH4v7but1WPndlI/HsrRaeD3bflAcsGpVLrC+973vzXk00x4zGbFZOBgHE8HhhS98YZqymF4e+LSMJc6PExyezFkrb3zjG+NXT/7VNOuZ9soqx0RXl4BRE+ZIx8STExPZPm1BJ0G6YKRVp590gqjdQgmPePQ2tUM/4aDVq+c8w3suJaGk/IT+4IccHDP94Tcwe7AJv+gPd0G6e/WDVfHwzHWbPh8agi0/q4aQC5W/YEnXJvXggQoE3s8oYZ3DGpJ84AqD7RfnzUnB6NrRLXwXH0lTvzQKWJ3wdv+K3/zNWLliZfxi5BdzyrnFtfCa73UBKhAM0vk23dT7RH3YykVx9213xdTospjYOht33LoyRie3xuz4+jjhuGNSgXQsXG/xdyUvpsfQPlNw4EEH5r2Otx7A5NRBRhfrDr5bIjBljV7pw2N0NNdOjByYx3TIPYGhDAiqEdLoYUQ6eHXn/q4UU4sVYS0/meoxUhvlX/3qV2e9Fu3Mra1bYCjOls1/hfxWyerVMdW7H8SQBFT9LA2LcDfceMOcTwqKjnXC+bN0irGmQ+p55IknphtEr6e/8MUv5CIhmPL6LAMrgWlfoaZ9XBiig18JgpEf/apt6GfKVFM7DnesowjlE9SzTzuAQ/HlczO9k8aSZAWgM1qxgKxlUGyEWBwBzPI9TurQDn1qfcIiraC/0VQoocQblLXBRF5WhXwWM8GUz09fWsvQrne/+90Jg2Wo71p4eW8Vr6cNHtEvprzgw1f/mkbjRYNQfbZCWdMz7Sq6Fm2ykv34s/AUSL92QSFs2TIeM1MRh/OJakF1NOLujVvi2CNHInZsidOfcERuJpuY9L3SiFFb3ocQmaYnuH/xF3+RH3bCNDpWJ2FO6aY15vQW5JjbVu+NoNZACCJBNT+1MGdx0Q8cjGYqgBGY8eXPE0zwBczO8hEnMLXdY1DMf8kll+R0AU5GOzDB9jbh/e9/f7riM/pZCPRVOUqBKY2RKS6muenK5NRkfO2yr8V3vv2dFEr4cKOojZSM18xcJRoBpXnFSzBOeOQJcelll4bvpxgJzfP9TDGsqaSi4GV9ejoFLBvRWw5oI6BH0Q8tKFkWnPUSwq/9FTxTZgI6sAxrJGdtSRfQjV9VStm07s///M+zPwijtaHVB69Od4WEUkBvcLdu2Zo4c4/oMw3ajOYWtV//v1+fA4j1LVMZ9ONC0ToEBYG22gsfZbSv+hIPUUxey1NOaKVP0JMVRbkI+hXent1TwuBbrE2F3ntwP/yww+ORJz4yF18pYNMrb39YSWAXvAS6n38W1FuYjkbOuIzEthiJiy+7Pp742GNiZnI2JmYidkyPxO13T8SW8cVxxfeviztu3hiXf/+GuOYnt8dPr74hfnLl9+Ilz33abp+2BNeUA7MYgQkpYX3EkY+IIw4/IhmEwGJ2C3CYgecqezcoDmlGYxYGZjJfNpJhDm8ICAABxYh8XwqlPNxjOsyHScTP/UZH0lw1AlJYGNGiX30npRgWYxuVLOKKw+DWDK697tp8cwFvC4DaZ0pmBMX8Jz7qxDj7rO5DSSwwgkj4KAKvoo2IcDENs56j7dpq0VBei6qJqyPr/S5J7eZHtEZGgqQsehb9KAv084pTPu1nOVT7xXmu9QVtY2WVUue7lDVT+Sh07aVE0dr0i3Kl/OBXOOgPP+UJqnhf4NNvYPkQF/qi89U/vjqOPvqY9OFK4dVAwVowSLAwxa864IB8e6Y8mmg/H6twpcTEEfpFixcl/dECDvLD27Sxha+egi8dPtffcENaJvjgt3/7t2PJ4iXZLv1Z8JKpBv4YBPAnGhg5s5da/nI/i2MXUpidyu/iro+ROO+PPx9/9Ptndq9l7QUYjbh9w2yMT0a8/68ujqefcnx32G40Ysns9jh4+Uy84JlP2G0fyN7IZ6TR4bnBaGDTUY08w8orp+PmNgn1mQgn5tlTGIRZ9bf5CxdKgPC1Qfn6tfWAI2hLG+ADT68kawpR6YVr1VfxrtW+ZM42ob8fbMfgs2zihIIx7LnSerB7vAzSCe7aurfy1b4W6CAcadaCKGmKtBZcKZua7sgziHsLc/B+kBamJT7pcOCBB8X11/8ssxf8Qf4ZLDsIu32m8OfWf37pE7UnTT8HIQZ3/vzG+Pg//jCVg23B9oXMjK6MsbElseXmH8fr3ty9nmuJulPb7jqZwTglkKUwbBUuIaS9MZwOlNeVdhfEV5CmTJUzShvRijEHBV459VpYGxRgdQjgV93KlxJwBZuQFGNJ9yx/Wy98Kh4uFSpe++BRdcorzbORvOoBVx1z7StAvRAVDbMu5356v6nVjmF1V/vLYsjnZgGYxVftpsxqK3mbjwJk1sNLHfJnnX3+oosy2qTv0K+es529ZaC8X9FGHtMLeVhgr3zlK1N5wMUUTpz2CkWnhJd+URs/si1ePS/By8I5+GCwfn/rt36rs/AAnNnpdxdMOClTOFY7s/L9+LPwLJCYyd2n22I0Pvr5n8SWbZMxajekMwExk+dd7E99+LJt8cIzHpPLrdMjmKlzkrt0ab/9ujk3gu46p7S9e52pk4oxKg9GzftGMCqf8kIJQj5QAL0gYdgS/kpzrfJtXeILj8JN1cq3+ZTNvHzV9yZ7RjSKTf6qdw5Wn6lVWmBl+/qpSZVJ+D193A/WU/W5gtGWa9s2WHfBafOAgV6VVjC1wU9aTZfauobBVlZ8lXXvJxSOVa417ysODoLyg6FwLp6pdPFoWPDAUlfVW7A8V1qVba9t26rN4BZd7qk8WPOxQBagAkGa2dwHsueJQNcVs1OTjknGDKHr3cpxgZg6YHeemOs/naOjXQdDMcBgfPtc5du4++J+X+Hua/7Csdo9n7ZWmb1d9xePYTD3BqvFu+7B2Nd2VNniAUqC1SNIYwVQCvsKd1h7xFEQ9wf8+SiQXSfAe8Lwv0o8eU7BHwmH8qd2jOOO/peckoqCH6EZFsKSxTGbg0g/CtU7mL0oD6Qqxqjrg4V8+4rPvuavdu5vuSq/pyvhK9jt/Z7yD4uv8sPSKq4UgOfKvy/1VZkqn0f1x3auHZUVUIe1ev8AABbDSURBVPXd22taVPcj/L3ht4AUSHecOh2elhIxz+0Xh+b81rrhE3WsVyw5h+/0zr4w0d6Ivr9pbf3F5C2z7i/c/6zlWno8mNtQ050Wx7b/5tuONl/duw6D39Y17L7KD0vbl7gFpEDYj8zI0e77DCOzMcLzWM44+3WJmnHknNUUBCnNG7trb77sC333K+9CVgrDCDaMHsPihpXdl7i9wdxb2r7UsS9570nIpf9HhwWkQKx6dtaFdQ3KIP8yi6etdXSLbJknU7qFrO79iLcl0ncuf3QQ9q377okhBqHJXwurtfBXeYqh28WySnMdVtewuCojrULBrmdX6ZWnFuPEyyu+8My4xvOVZ3P0YfEZ2f8p+MNGU2mFU3uv6OBzC7PuB/N49htW157KVLzrILxK21N8m+5eW6o9ldZewWnDINx6rmvlHXyu+GHXvdU/LP+e4haQAkGCXoH01CCUsyNjMdJ/EnAYkfa00Noug+yp49p497niPuBsRnxiNmylPg97dWjL18JTJgWTc65GwIa1oeIwzXzzVr72Wm8HwKu3CMWI5d2q6qqrfLXoDNaeFJ780gdD1T/f+MF898fzXJsbure47wnnFpc2z3z7peotOIPPFX9P18J1f8u38BeUApmh+VMemRJGxbHYPBLxNT5Rx7elT9SZadvVR2L7zJLcnXr44i1x+qOPiNzzPmJXXnd+oiUixdD6lWyFpBW01ttUxYOTo7fZVf8JymKoXGzr5k9ZnT0UVvAxgPLu9xQKhrz+Ce0rV8/1es99MVNdE6denuEtvl5LJrBSYH3ZYfsJqu4Wz7JGwGgZGfzKp21wbvEVl2Xy0+jdgmTCH1Cs4sCCv36seySoxUtxfhWUSfg5vux8ZS1urnzPN63V0pYBq4W5C+wel4pzzTr71/aFp/iWPtovXxvfcfCudVUZafLDscpVG9o2Z9/C1ydbB2iRle3DnwWjQHRDLw95He0fto1EfPSb18cpjzomlk5Nx2RuVF0Sm6ZXxMTMonTg89STj47F9hDM2qy1k/FaOusUgqbjCHp1jA4kDHffdXcenrONvO3gORg9WPkJkvLu+d2wvdqBLedBijFK2JwPAdMGImXaIG/m76NLAcmT8ayXuU9V7BRY9bZBXrCdP+Hkxz3vWbaDC86UOCx36y23JtzDDj8snvXMZ3XHxEfG8owMJznO0zhzUvDaOmybdrjQlv7ckzPdKYCi1Vw7eq/uJcgV70pBwF15QVwpT8/VR3dv2BCXXXppOMtiE5d4ebXLFQzwM36mX3zvrS7wsp5e+KueQdpXPBh1X9e5/tVGfVb903znGJNmW3plyMJraaGcXymPhD3H4Vll4l/xXvMqn/Xh/ZyOd9P0Lvf+/V0wCkQf4StXPJHrIDNTMRqL4qErR+LMUzufqD7i4LA1T2XGuT/67uH9q9yxMN5PdbQP285A8227dqTUQbXDFDOWoBMgzoidgl2ydMlcPCZpy1c32pHIpwahdS6CxywnWB2lr+AAFc9mzogQBKEEwT1cStCqTOVxLdzcw6PShpVxqIvvEGkOo3G796pXvzoOXr06/aB+9MKP5nkSMB02EygsCsdWbtu2h/l0zYwR6YAJfeqsD5oUTin4A9aWNLi0bQBrmCVUdbiij9O6aOo++8jenp1vWRNveXfrl94fageDh/5e8ksh9xWlkPb3u8Ho410GcW0tVOnqASvjG/waELvj2CTuUvfoTotzkGZNkX2+XTAKBGWqu7t+XxQT/aLozI4tsXlHd6Duu1fdFbdt3hHbZpymXR4bt0/FBy75RSyb3RoHL5uNZzz+6FjWw6KH2Bff+Pq/x/HHHRcPXbMmT1c6Tu2EJKuA20CHuQi4w1eCjuWRDAMZkbkBoAgwC58cDmo5AcoH6vnnn5/C56SuZydcnY51QpdDHQepSuBzNOpHlzLXHZ13MlQe/iqcClYP4ebVygGyEx75yDkfoPCz9Zrl4+i5Q18Ol8l/5jPPjFNP6fxd8Kz2/e99L08Uw9XBQIfb2uDkK6XBM5hDZOXT1SE7XuRrwIQbWjkA51zHD678QR4i5ImsBJwidbwdzZ73/Oel71GnSdEtHfxMTcZTnvyUtGIcEuOn9JCHHZKW0Be/+KW4/fbbsk/UzTWkutSLFg7n/f0//EO6MdBeVpB6HUCUrg+1RZrDkuLQCP04FXJIjTUzGOSD24Uf/WjCxhOsNRYjq1KbHJLUh9rqHt3Vzbpz0hld4FH4wEP5cpvQwmelUu7SU5H3vnD1nTgnrAWe7zdu2BhXXd15ZnMyen/DHvTa/oJ7cJfTCd073EgXhQ7PCZtmVsbk0ojx5RGfu/TKeMiqA2Lt8pFYMnFnHLd2NiY2Xx8bNt0dH/jEP4eVE8XSouktEI6Nr3GS1vbfq65KP6gYxSjJdyWBd68jjXwcEdvlx8pgthMM+eX7+490PjYxglOYGAGzOi3K/wVmB8cpTj4+wKtAaZSW1FbKgdVAEWB0SsfxceVZNBhTPRd98pPBRaB6pH36M5/OQ19w4ucUoxO4Uh7qc8iqo2ekBaIN73rXu4LjojomPj4+nvmckgWbT1R4wEeo8nXPD4dDYYSLr1HH5AkhPyHwFY8G7/mr92Q71t+9Po/gO0Y/vn080+HAhwbcP/uZzyY+N954Q7aH1aS9d9x+R5YjjPK9733viysuvzxx48OWwlCvNv3t3/5tKmr1Ou7PdaN+I+joVzTiMoEC16ZqlzbzMn/lFVckbhQOK2tiYiLbxP2DQ3aeHbLjPoESSdw/+9k5h0zw4CvVNE9+5eChvoKvr/Wv/oKftmkLvNFcPqeoBcr1kxd9MnGS996EhWWBmG/aVszdR0R84UcTccfkotgyMRsX/+t08Dg2NbYynG176Kpl8dwnPiQ+/dmb4n+dfVoqnO/+6IZu0KQp3PUmjWP2V/zgyjjt8Y/Lzj/r7LPSMW4K+qpVOffX8YQdo7l/0YtelC4ACAZFwbGPQGiY7BikGJGp7Dg35tfhhPkVL395HtvGfMW0mL41g9UDB35LBYJBkRFIVsl73vOejHcQi4Phxz7usbH+rvXBx+rb3/72FCIWjJEas5pHE1ZCgNFZFuATJJaB+jEsJfKa174mGR7O4nO073268rqW5nUzfMELTMfoHcMnDKyL0x53Wnz+85+PU099TJxzznMSX7hxG8C1ADcCL33ZS9MiQTOKzRF2jpyUo8BZcWjE/yclBFfl4GRqRkESSlYiAaS8WBVcNMCFF3mB97U77rwj+4AQlp/Zoh/LRf0VDAgGCtYa2OhWR/9ZFiwPDpIMEvDgBKgcLLHErrj8ivR54kg/fAsPPlNZn2gG94IPdwMSeus3SkmaYBrJYRTasNBYHeVkqvDdn+uCUiBJoH6hkSXxpa99I04+7bHxqCOXx8EHT+Sq/ZLpQ2P7zGh87GOfi5NOfGFMzIzFbVumYyJGY7J3u5eKI5VIR3Kd+/Obfh6bNm6MDRs35JrET3/ykzwRqZPLAxQvXZgX42NOIxRT1OcGdLS0N7zxDSlcNb8uJaKmugdTWb+Kk25axBoSHvf4x8W6Y9fltOltb3tbmsKmPwSCvwijGUHEvJQShtu0cVOe6uRHwigIHwu3AkWhLkJnKsbEpjjgz7GvKYqpl5GPoP3ohz/KNiqLobvlzG5OPzE5kd7NKQEwOTiSh5nNf6x2wRMsp1UJPUG86qofZf2EkB8MipR1U/jBkVCK1yZeuwi1wOrRD9an0E+9fgTRGpKyLKZTTj0lp5RO5vKtyvKDD3j6jS8NFpYRn1dz9KDE0Y+vUQoEfPEEmD9WZdVFaKvNntGQRanN7lkKlJ3ylKn1smzbzEycfPKjU4lP7JhImNpBcYEPP8H0jOczAc30M76CC0WOBknT6alUSMrp/+yf5hW65/mGZgyYb5H/vPl0mu2lyEP+l6xYGc84dUWsO2RpnLpueZx6wrI46fjD45RTVsaBqx8S3758a2wZn4nxace2I6Z9ta5CQ2RMe9ihh8b6X9wVOpiG37y584lq0bM6yKjDk7pR2o+SYH2Y/xqhMNqHL/hweEtw6MMPzXLKGvmN2vxJYBxx5QqRkFeHYwZwWDrcDHJ8wymNcgIT2qgoP2G3sCk/Bfja174282G2YqqCq6w4+FMonNLwauXzFZjd3Bs883HlrRUQDEpA3fLUYS9MSwjl0xYw1eOZgAvoUpaVZ/0Gvrzae85zz0nnStLgv3Rp5/0NDHlcrbHwfwonysEuQFe4tEHd1c7kjzax98MqXRql4goG2mqb+uHGofSqlas6S61XUAUXSDhV2YpXHp6mngTfN4MEdNA3qXR7wV62vJuqiqPowCo47oW2feIo15UrVyadORriyAnNBXWjc8HIyP34s6AskCSWz/n1i6ebNm/NxdPDD1wWW+/aEFMji2Nqe8SGO1dE7NgUozOb47h1R8U2Cj51z/B9F5jIqM1df5q9a9akwBk1zz333DkBsRjJAxThszbxute9Lq2Gk37lV+INb3hDdt8f/MEfxDOf9czseCMYpYKhjHA+eLR0Wfe2xRQAUxLsCt5g1FsMccxbAlefizC6GeVYEMxi9QsEwroM4aNM1IvBCoaRlR9WQu1VrGCEozjFmSbwQIZZLajC1Wteigyzq5Myue7a67Ju3yvxqpfirABX/aNd+ev9lsBfWR7FuIAUTPMIQioKyqJXAlm+3ycDhrJFo0W+q9N8YQ7dpGmvqZ17+FqHUU6fKsOLe9UjXh3ohz5FP8KKfsqot97oGDx81ElAW2sQYJXAg9UudrOcKHLBmofPPsgDj/L5Cr52iDf4GBQEdVu8B19AM7/CkcVkeqMNYCifuGbuXfeV9FHzuiwoBZIU0YG9BbJ523jYxX7IQStjdlHEjtGI9Ru3xNGHcZC6PZ762ENjanY28nO5mGB0tnhjF+LqDCa19YzXvf71sXRJZwXIpBMFisDaAxPSmxfmv7cSGPn/nX9+MqURjgJY89A1aZZ6a2JRkAIhqL5NotMxoB8fpYSzRlXrFJzLCCwUwcIhhlc/hsZ0mJnZ7jsmRjoKg2XBhyeB8qZGGgWB8coBsI8qERSBGe+NEdwoDf5OMTEzmaLUbjiY11vPUE++rfkfnRtHo2VaBv3rTG2RXsLF56dpFPqU71Fvq1gwTPO0mA5YlYpMGX2gjRSbIA6tWSACGtUCslHcvTjWQ9FC201prJ9oC7P/ob2XeTC0TT/o6yqjXV7Ro98Tn/TErO+SSy6NM854RtLPtMIalDUVMOGpXu3QXgGuyluXMuVAd2naIx889GEFeEgzaJkW+Z6NK/gV1GtAMyCxRCgPfaEu8FiI90VYUD5RO0az9jkSyPeJS6+NJzxmXcxMTsfkTMT2yZG4c8NUbB5fFFdccV3c/LM74sorboqrrr41fvyD6+NnV10R557z1KEuDY3ohMa8dfGSJTkXPurII5NBdRRBWLN2TQoxATZ3xYx8e2IGnWoEf7aRfMWKHCkwgbUKDEeIrDMImLB+mI1iAL/SjELSmdkYHAzMdcYZZyTTyUcAxKubwmDewks+9fDLCQ4llkptzZqcmlmolA/e9bpQmwk1Zteu8lVK2bG4CLL2WWyuV6SJbNMWoyqBUF69ngm3NrDqpFkXQCMCXq+jCYf2G1n9CJo60cMzGH6e9ZG8K5avmMtHAVpYpDjkOf3007NdeMV+HT5tS3jVDbar+pWhBAl/0m/xktieX6m7JRU1i6bWYODgGc3RAW76rtqLd8RReF4/P+95z4tVB6xKH7VwlM/U2LTDs3ZoD/ilCK2/GFB8ZEo/Uir6BT0tzrIS3Utj7VS7qi8Gr3Ata8e8v3bMFu/ldSH5RE0FYgPYyFjcFRGveOfn4i3/51lh3XzWu31uDjfPxsR0xN+8++I46/En5XoJQi2a3ZY+Uc/6jcfspkA6xbRz4cneEBvMBJ1bBK8OYimU+ThYVh5xWdbu1saPKmYtRVGw2muVU597PwzTBvhUaNPEe65r5XGFr9Di4pnCgI/62lB1iHff4qwMQRFafNvyg/fD2j0Mz8Fy83nWtppGVP49tavSq30t/aRpT0sL1tDFn7o4FZY0VoAPb9UejoI33+sw+BddfHGsWunN4XSuqxX8lscK/nzpXflNwSmlbFOzzV+7xfk9OKcwnfxUO3a97sqru6Y1T4PEbpLyVsM33Pzz+NiF34/FsSN8amrWVujRZTE6siS23XpNvPKs3X2iEiUKAhqFCkJiqhQO89Ne6OBQxJauk2l0DCuvctJZIgWDcBG4xD86s7zglCBW21xZEGAKYAji89q7YfTsV7i4YrCqV1rBrrSaCoEpzRXOBdtzwQPLIqm4rKdfGPSMGHCsUPV4zvQ+oaWPKLQSl/RqfI8WHHRSF9gsIqH6oEZNeJmvVp3aW7SqcpSifNOTnZLUprl25eLrTsWpTNGi6nZNWox1353xDI+EQdCi+2Kd56ef/vQ55SGPXylT9+BX3W07i1eqHZ4LvvWfWhhnPVFOiVPvgxcdq19y4b33T6t8wau69uf64HRpeL8qEMI0EjtGIi7+6g2xebvXt50y6F428qw8GWuX7YiznnxyLBqdSoVh3MZPS5ctj2lMk1vjO4Et5tVxxQDu69lVqOe6r+didEAHR0NpmFAAu8oWUxQM1xLIuq8r5hQqvcrWOQ1pbb3KtWlleYBj/aA1ZRNwY6UMwvKc7Usad0qnyrRXdfq1bZReOFfdGde7CxhWZhBG+wxGwWvj3Vd7ta1wqPxVxrM0+cVVu+BU9JPWwm7b6J5AE9xh+aqNRd+CMwwP9RdebR0tfPHVLvdwFMDdU/nM0P+ZjwXyX1OBkFdCO9r5/CiilLhL8iGpezS/UvDYJjsDn6ipDtJx8M54Q51//ueJ3SapOqyiPAstAwzmqbx1HZbexrX3Vaau0trQ1iu+0ofFD8a1cAbv94bDYN6F8IweBLroq82URymoe0uD+xv+fBTIPcrQvW3kfVq+NMB8gDZ5iU/vPihLsqw13Maw7l24o4/yeEOTaiAV0KL8Zimt3QlgrWsk6AZ+oSOqXCNW3L5c70kA7ym9rauYdlABDD5XmT3FV3pd94bDfGEUrIVwTf7qLcjWurmv2n5/w78nPB+cCiQlsUe9BJUMG0kHFuz22MBaD5gDwzowz6UQujMjixabO3ebyxy17artR+ucz9M83XSllIhrp2LGerZoMcAiew4lfAStBLxy35PwDaYPli84w65Vdm9lCrfB8vsaP1h+IT+je3u04L6mxf0Nfz74/ocqkJrbtYxNADsxpCy6Odt8GrJLnk4TdILeKhy+GRqYtPecm8MEUMqiy0dfURY5J+3TXQYtml3qbh5K+EqAs+w8558NmP26bevcVwAt3m3fgHNv4O4rHr/M/+CnwAOuQLq1br7AZmJkeke/mNMoCkKeTmMiRhfbGNNvG82hfdfxvRh9KJl7JbITsjcC9kr0Md1yRWfQ9EbHzoeuHsKSyweuWUmnTExl3HWKpGrfHTcKEvqpgJpFL3gPW9xSX5ZJJdU5rgG9Fdpqc4dbIT48T+Wdw7BVpn1k4WKBzX394F0Lg7LCq5/cZclakCvYv7wuTAo84Aqkewk6GunKZ/HOk4uD5Cfm3ejf6RDpgwIxWKaeK18reJ0k79z2nXkJjK3tKeWdAtipKDpFUwqoFEanDrqadlUgVXt3pSBS6Po3CxbOCh8La9LqeWSsW1GH95wCoblGd7552RX6zqdqa113pgyn19B8PCyNdSv2Xt/OKadFUOgoUG0BHwyLSPm9k4F9JsPgtzj98v6/FgX+P1O5NN8d6BKCAAAAAElFTkSuQmCC;" parent="1" vertex="1">
          <mxGeometry x="34" y="336.5" width="272" height="141" as="geometry" />
        </mxCell>
        <mxCell id="RDdP6Cg_x0NcpBkW0Wiw-3" value="Default Gateway for SEC350-WAN" style="text;html=1;strokeColor=none;fillColor=none;align=center;verticalAlign=middle;whiteSpace=wrap;rounded=0;" parent="1" vertex="1">
          <mxGeometry x="539" y="161" width="121" height="20" as="geometry" />
        </mxCell>
      </root>
    </mxGraphModel>
  </diagram>
</mxfile>
